<!-- Generator: Adobe Illustrator 15.0.0, SVG Export Plug-In . SVG Version: 6.00 Build 0)  -->
<!DOCTYPE svg PUBLIC "-//W3C//DTD SVG 1.1//EN" "http://www.w3.org/Graphics/SVG/1.1/DTD/svg11.dtd">
<svg version="1.1" id="cg_b" class="begin_svg" xmlns="http://www.w3.org/2000/svg" xmlns:xlink="http://www.w3.org/1999/xlink" x="0px" y="0px"
	 width="682.56px" height="384.158px" viewBox="-35 204 682.56 384.158" enable-background="new -35 204 682.56 384.158"
	 xml:space="preserve">
<path fill="none" stroke="#726F6F" stroke-miterlimit="10" d="M-35,552.24c3.872-0.397,8.893-2.641,12.48-3.84
	c9.055-3.03,18.302-5.218,27.12-8.16c5.196-1.734,10.165-2.584,15.36-4.32c16.647-5.562,34.226-10.059,50.88-15.6
	c4.406-1.466,8.554-2.131,12.96-3.601c9.866-3.289,20.151-5.771,30.24-9.12c3.302-1.096,6.787-1.947,10.32-3.119
	c1.573-0.522,3.215-1.407,5.04-1.681c0.116,0.919,0.395,1.253,0.72,1.92c0.08,0,0.16,0,0.24,0c0-0.16,0-0.319,0-0.479
	c-0.306-0.439-0.409-1.262-0.48-1.92c0.4-0.08,0.8-0.16,1.2-0.24c0-0.08,0-0.16,0-0.24c-0.48,0.08-0.96,0.16-1.44,0.24
	c-0.174-3.625-2.511-8.51-3.6-11.76c-2.564-7.649-4.481-15.377-6.96-22.8c-1.712-5.128-2.602-9.988-4.32-15.12
	c-6.541-19.542-11.973-39.965-18.48-59.521c-3.312-9.952-5.886-20.037-9.12-29.76c-1.158-3.481-2.387-11.059-4.32-13.44
	c0,0.24,0,0.48,0,0.72c0.181,0.258,0.145,0.227,0.24,0.72c-3.682,0.173-7.61,2.051-10.8,3.12c-7.87,2.635-15.908,4.417-23.52,6.96
	c-2.572,0.859-4.868,1.06-7.44,1.92c-12.558,4.2-25.617,7.258-38.4,11.52c-7.81,2.604-15.965,4.531-24,7.2
	c-4.462,1.482-9.209,3.205-13.92,4.32c0-32.717,0-65.443,0-98.16c2.974-0.3,6.022-1.763,8.64-2.64c4.865-1.628,9.77-2.771,14.4-4.32
	c13.102-4.381,26.48-7.473,39.36-11.76c8.365-2.784,16.598-4.407,24.96-7.2c27.99-9.347,57.213-16.61,85.2-25.92
	c6.802-2.263,13.369-3.493,20.16-5.76c16.998-5.675,34.614-9.866,51.84-15.6c7.254-2.415,14.83-4.237,22.32-6.72
	c3.976-1.318,8.396-2.975,12.48-4.08c12.959,0,25.921,0,38.88,0c0,0.08,0,0.16,0,0.24c0.08,0,0.16,0,0.24,0
	c0.274,3.013,1.755,6.035,2.64,8.64c1.814,5.34,3.073,10.74,4.8,15.84c1.04,3.07,1.374,5.805,2.4,8.88
	c4.192,12.554,7.764,25.87,12,38.4c2.001,5.92,3.064,11.595,5.04,17.52c8.604,25.809,15.526,52.703,24.239,78.48
	c3.732,11.04,6.098,22.39,10.08,33.12c1.283,3.456,1.704,6.787,2.88,10.319c4.251,12.771,7.59,26.483,12.24,39.12
	c1.439,3.91,2.349,8.03,3.601,11.761c0.312,0.93,1.149,3.839,0.96,4.08c-1.857,1.336-4.856,1.375-7.2,2.159
	c-5.675,1.901-11.622,3.309-17.521,5.28c-18.255,6.105-37.44,10.972-55.68,17.04c-6.467,2.152-12.812,3.223-19.2,5.521
	c-1.51,0.543-5.397,2.431-6.72,1.92c-0.778-1.142-0.717-2.621-1.2-4.08c-1.148-3.467-2.334-7.379-3.6-10.8
	c-0.376-1.017-1.502-4.33-1.2-4.801c0.326-0.303,0.424-0.327,0.96-0.479c0-0.08,0-0.16,0-0.24c-0.48,0.08-0.96,0.16-1.44,0.24
	c-0.128-0.67-0.348-1.471-0.72-1.92c0,0.24,0,0.479,0,0.72c0.304,0.419,0.361,0.986,0.24,1.2c-0.828,0.638-2.659,1.044-3.84,1.2
	c-0.16-0.48-0.32-0.96-0.48-1.44c-0.08,0-0.16,0-0.24,0c0,0.16,0,0.32,0,0.48c0.21,0.311,0.214,0.592,0.24,1.2
	c-0.16,0-0.32,0-0.48,0c-1.686,1.203-4.355,1.207-6.48,1.92c-3.863,1.296-7.924,2.235-12,3.6c-8.599,2.877-17.573,4.985-26.4,7.92
	c-4.79,1.592-10.674,4.062-15.84,4.8c-0.24-0.72-0.48-1.439-0.72-2.16c-0.08,0-0.16,0-0.24,0c0,0.16,0,0.32,0,0.48
	c0.399,0.497,0.458,0.997,0.48,1.92c-0.16,0-0.32,0-0.48,0c-0.88,0.691-2.72,1.1-4.08,1.2c-0.396-0.979-0.831-1.674-0.96-2.88
	c0.16,0,0.32,0,0.48,0c23.518-7.119,47.042-14.241,70.56-21.36c0-0.08,0-0.16,0-0.24c-2.913,0.126-5.715,1.583-8.16,2.4
	c-6.445,2.152-12.975,3.687-19.2,5.76c-4.417,1.472-8.539,2.125-12.96,3.601c-14.053,4.688-28.896,8.53-42.96,13.199
	c-7.03,2.334-13.856,3.657-20.88,6c-23.8,7.941-48.688,14.172-72.48,22.08c-7.574,2.519-14.989,3.955-22.56,6.48
	c-16.764,5.592-34.122,9.705-51.12,15.36c-7.245,2.409-14.836,4.232-22.32,6.72c-4.116,1.368-8.624,3.03-12.96,4.08
	C-35,560.4-35,556.32-35,552.24z"/>
<path fill="none" stroke="#726F6F" stroke-miterlimit="10" d="M305.32,204c-0.24,2.123-1.434,4.239-2.16,6
	c-1.336,3.238-1.788,6.361-3.12,9.6c-1.166,2.833-2.861,6.09-3.36,9.36c0.16,0,0.32,0,0.48,0c0-0.16,0-0.32,0-0.48
	c0.971-1.333,0.998-3.142,1.68-4.8c1.669-4.058,3.258-8.599,4.8-12.72c0.396-1.06,1.826-6.649,2.4-6.96c1.52,0,3.04,0,4.56,0
	c0,0.16,0,0.32,0,0.48c-1.854,2.161-2.214,6.1-3.359,8.88c-2.409,5.843-4.354,11.918-6.721,18c0.56,0.071,0.595,0.108,0.961,0.24
	c-0.012,2.702,1.208,5.052,1.92,7.2c1.795,5.416,3.065,10.883,4.8,16.08c5.274,15.813,9.216,31.947,14.399,47.52
	c1.892,5.68,2.902,11.123,4.801,16.8c5.68,16.987,10.425,34.822,16.08,51.84c1.99,5.991,3.036,11.765,5.039,17.76
	c5.344,15.988,9.475,32.496,14.881,48.72c3.306,9.922,6.876,20.342,9.6,30.48c-0.16,0-0.32,0-0.48,0
	c-1.247,0.871-5.638,2.004-7.439,2.16c0-0.16,0-0.32,0-0.48c-1.455-2.048-1.549-5.377-2.4-7.92
	c-1.872-5.592-3.337-11.466-5.279-17.28c-6.223-18.612-10.988-37.808-17.28-56.64c-9.999-29.927-18.13-61.017-28.08-90.96
	c-2.31-6.952-3.679-13.688-6-20.64c-4.81-14.405-8.567-29.282-13.44-43.92c-3.002-9.02-6.621-19.019-8.88-28.32c5.999,0,12,0,18,0
	c0,0.16,0,0.32,0,0.48c-1.739,2.362-2.037,6.249-3.12,9.12c-2.061,5.462-4.555,11.188-6,17.04c0.24,0,0.48,0,0.72,0
	c0.416-2.118,1.463-4.159,2.16-6c1.795-4.746,3.108-9.615,4.8-14.16C301.52,207.15,300.504,203.855,305.32,204z"/>
<path fill="none" stroke="#726F6F" stroke-miterlimit="10" d="M337.48,204c0.3,2.756,1.604,5.515,2.399,7.92
	c1.401,4.236,2.021,8.461,3.601,12.48c-1.337,0.625-2.67,4.905-3.36,6.48c-2.09,4.768-4.817,9.762-7.2,14.4
	c-0.571,1.112-2.827,5.967-2.64,6.48c0,0.08,0,0.16,0,0.24c0.16,0,0.319,0,0.479,0c4.24-8.959,8.48-17.921,12.721-26.88
	c0.192,0.245,0.085,0.066,0.239,0.48c0.61,0.838,0.91,2.288,0.96,3.6c-1.348,1.482-1.914,3.661-2.88,5.52
	c-2.046,3.935-4.062,7.983-6.24,12c-1.272,2.347-3.581,5.036-4.079,7.92c0.26,0.218,0.021-0.019,0.239,0.24
	c0.261-0.218,0.021,0.019,0.24-0.24c1.612-1.75,2.081-4.374,3.36-6.48c3.454-5.687,6.649-11.962,9.6-18
	c0.364,0.128,0.406,0.162,0.96,0.24c-0.146-3.089,1.649-4.856,2.88-7.2c2.06-3.92,3.462-7.975,5.76-11.76
	c1.253-2.062,3.413-4.822,3.841-7.44c6.879,0,13.761,0,20.64,0c0,0.16,0,0.32,0,0.48c-2.527,2.63-3.794,6.677-5.76,9.84
	c-4.568,7.35-8.608,15.074-13.2,22.56c-8.104,13.209-15.355,27-23.521,40.32c-2.527,4.125-4.824,8.506-7.439,12.72
	c-1.231,1.984-3.071,4.138-3.84,6.48c-0.193-0.245-0.085-0.066-0.24-0.48c-1.183-1.626-1.22-4.16-1.92-6.24
	c-1.672-4.971-3.059-10.159-4.8-15.36c-3.21-9.588-5.889-19.45-9.12-29.28c-0.479-1.458-3.56-9.117-3.12-10.56
	c0.563-1.852,1.953-3.981,2.64-5.76c1.217-3.152,2.145-6.026,3.36-8.88c1.586-3.721,2.811-7.496,4.32-11.04
	c0.376-0.883,1.136-4.409,1.68-4.8C324.52,204,331,204,337.48,204z"/>
<path fill="none" stroke="#726F6F" stroke-miterlimit="10" d="M342.04,204c4.319,0,8.64,0,12.96,0c0,0.08,0,0.16,0,0.24
	c-1.278,1.401-1.632,3.331-2.64,5.04c-1.957,3.318-3.792,6.999-5.521,10.56c-0.16,0-0.32,0-0.479,0c0-0.16,0-0.32,0-0.48
	c-0.664-0.987-0.545-2.332-0.96-3.6C344.186,212.045,342.982,207.913,342.04,204z"/>
<path fill="none" stroke="#726F6F" stroke-miterlimit="10" d="M391.24,204c0.248,2.407,1.458,4.86,2.16,6.96
	c1.624,4.861,2.772,9.759,4.319,14.4c4.823,14.468,8.471,29.219,13.2,43.44c2.5,7.515,3.971,14.811,6.48,22.32
	c6.792,20.322,12.438,41.585,19.199,61.92c2.316,6.968,3.677,13.681,6,20.64c5.241,15.69,9.341,31.847,14.641,47.76
	c2.829,8.494,6.396,18.026,8.399,26.88c-0.239,0-0.479,0-0.72,0c-0.933-0.445-7.228,1.902-8.64,2.399
	c-7.919,2.32-15.841,4.641-23.761,6.96c-0.512-2.116-1.688-3.835-1.92-6.239c2.675-0.279,5.453-1.719,7.681-2.641
	c4.912-2.033,10.071-3.244,14.88-5.04c2.116-0.791,7.218-1.644,8.399-3.12c-0.363-0.128-0.405-0.162-0.96-0.239
	c-2.917,2.137-9.7,3.024-13.439,4.56c-5.54,2.274-11.983,4.113-17.521,5.76c-3.915,1.164-8.049,2.881-12.239,3.84
	c-0.028-2.031-0.911-3.696-1.44-5.279c-1.142-3.417-1.813-6.875-2.88-10.08c-0.32-1.601-0.64-3.2-0.96-4.8
	c-2.803-8.471-5.331-17.504-8.16-25.92c-1.992-5.926-3.055-11.582-5.04-17.521c-6.855-20.511-12.557-41.909-19.439-62.4
	c-2.232-6.644-3.542-13.036-5.761-19.68c-3.749-11.228-6.76-22.877-10.56-34.32c-1.296-3.903-2.343-8.188-3.84-12.24
	c-0.815-2.208-2-4.583-2.16-6.72c1.179-1.288,1.68-3.035,2.64-4.56c1.767-2.805,3.468-5.725,5.28-8.64
	c5.326-8.569,10.742-17.351,16.08-25.92c1.756-2.819,3.344-5.676,5.04-8.4c0.487-0.783,1.564-3.689,2.16-4.08
	C389.32,204,390.28,204,391.24,204z"/>
<path fill="none" stroke="#726F6F" stroke-miterlimit="10" d="M429.4,204c0.194,1.894,1.148,3.69,1.68,5.28
	c1.63,4.88,2.777,9.778,4.32,14.4c4.828,14.463,8.465,29.206,13.199,43.44c2.843,8.546,4.588,16.903,7.44,25.44
	c9.657,28.896,17.51,58.933,27.12,87.84c2.394,7.2,3.838,14.172,6.24,21.36c5.055,15.131,9.047,30.728,14.159,46.08
	c2.182,6.551,3.988,13.376,6.24,20.16c0.795,2.396,2.013,4.909,2.4,7.68c-0.08,0-0.16,0-0.24,0c0,0.08,0,0.16,0,0.24
	c-3.291,0.176-6.744,1.921-9.6,2.88c-5.192,1.744-10.163,2.589-15.36,4.32c-2.884,0.96-6.172,2.405-9.36,2.88
	c-0.8-2.64-1.6-5.28-2.399-7.92c1.916-0.101,3.61-0.789,5.28-1.2c0-0.08,0-0.16,0-0.24c-1.841,0.32-3.681,0.641-5.521,0.96
	c-0.261-2.778-1.597-5.514-2.4-7.92c-1.888-5.652-3.229-11.366-5.039-16.8c-1.384-4.152-1.85-8.116-3.36-12.24
	c-4.74-12.937-8.134-27.01-12.48-40.079c-2.156-6.487-3.357-12.729-5.52-19.201c-8.437-25.242-15.366-51.551-23.76-76.8
	c-2.658-7.997-4.291-15.771-6.96-23.76c-4.894-14.646-8.721-29.757-13.681-44.64c-2.186-6.558-3.983-13.374-6.239-20.16
	c-1.279-3.849-2.859-7.904-3.841-12C404.279,204,416.841,204,429.4,204z"/>
<path fill="none" stroke="#726F6F" stroke-miterlimit="10" d="M530.92,428.88c3.633-0.146,6.824-1.72,9.6-2.64
	c6.177-2.047,12.521-3.318,18.48-5.28c4.095-1.349,7.906-1.78,12-3.12c11.729-3.835,24.275-6.712,36-10.561
	c2.97-0.975,5.641-1.184,8.64-2.159c6.531-2.125,13.417-3.55,20.16-5.761c3.591-1.176,7.73-2.982,11.76-3.359
	c0,6.159,0,12.32,0,18.48c-4.238,0.398-8.615,2.013-12.479,3.119c-5.993,1.717-12.046,2.571-17.76,4.32
	c-4.086,1.25-7.878,1.462-12,2.64c-10.761,3.077-22.356,5.336-33.12,8.4c-4.153,1.183-7.849,1.458-12,2.64
	c-6.913,1.968-14.261,3.124-21.36,5.28c-4.116,1.25-8.759,2.759-13.2,3.36c-0.124-2.549-1.442-5.054-2.159-7.2
	c-1.813-5.426-3.069-10.898-4.801-16.08c-1.471-4.403-2.127-8.558-3.6-12.96c-3.78-11.302-7.042-23.273-10.8-34.56
	c-1.705-5.12-2.604-9.987-4.32-15.12c-7.221-21.598-13.213-44.163-20.4-65.76c-2.052-6.167-3.224-12.087-5.279-18.24
	c-4.974-14.879-8.891-30.262-13.92-45.36c-2.695-8.089-5.887-16.54-7.92-24.96c3.04,0,6.081,0,9.119,0
	c1.228,6.295,3.994,13.667,6,19.68c3.689,11.06,6.479,22.303,10.08,33.12c2.239,6.723,3.512,13.195,5.761,19.92
	c6.797,20.328,12.433,41.583,19.199,61.92c1.973,5.927,3.06,11.591,5.04,17.52c4.998,14.958,8.861,30.41,13.92,45.6
	c3.018,9.059,6.498,18.565,8.641,28.08c0.16,0,0.319,0,0.479,0c0-0.08,0-0.16,0-0.24C530.86,429.342,530.824,429.373,530.92,428.88z
	"/>
<path fill="none" stroke="#726F6F" stroke-miterlimit="10" d="M462.04,204c2.56,0,5.12,0,7.68,0c0.278,2.746,1.602,5.53,2.4,7.92
	c1.625,4.861,2.771,9.76,4.32,14.4c4.563,13.681,8.005,27.602,12.479,41.04c1.625,4.879,2.447,9.517,4.08,14.4
	c6.796,20.327,12.434,41.587,19.2,61.92c1.972,5.927,3.059,11.591,5.04,17.52c4.385,13.127,7.788,26.708,12.24,40.079
	c2.732,8.209,5.857,16.9,7.92,25.44c-2.24,0.641-4.48,1.28-6.721,1.92c0-0.16,0-0.319,0-0.479c-1.048-1.458-1.054-3.654-1.68-5.521
	c-1.609-4.796-2.88-9.857-4.56-14.88c-4.928-14.729-8.683-29.927-13.681-44.88c-9.126-27.304-16.599-55.725-25.68-83.04
	c-2.659-7.999-4.295-15.775-6.96-23.76c-3.673-11.006-6.596-22.396-10.32-33.6c-1.145-3.444-2.043-7.182-3.359-10.8
	C463.596,209.361,462.301,206.74,462.04,204z"/>
<path fill="none" stroke="#726F6F" stroke-miterlimit="10" d="M647.56,204c0,59.034,0,118.086,0,177.12
	c-3.668,0.335-7.34,2.274-10.56,3.36c-7.357,2.48-14.708,4.566-21.84,6.96c-14.46,4.853-28.737,8.606-43.2,13.44
	c-7.775,2.599-15.746,5.015-23.76,7.681c-2.46,0.817-5.027,2.008-7.681,2.64c0-0.16,0-0.32,0-0.48
	c-0.916-1.29-0.886-3.146-1.439-4.8c-1.532-4.572-2.715-9.368-4.32-14.16c-5.011-14.955-8.845-30.418-13.92-45.6
	c-7.729-23.124-14.146-47.181-21.84-70.32c-2.054-6.179-3.223-12.077-5.28-18.24c-4.014-12.026-7.201-24.462-11.279-36.72
	c-2.245-6.746-5.027-13.895-6.721-20.88C532.994,204,590.286,204,647.56,204z"/>
<path fill="none" stroke="#726F6F" stroke-miterlimit="10" d="M414.04,455.76c-1.818,0.096-3.354,0.954-4.8,1.44
	c-3.275,1.102-6.546,1.854-9.601,2.88c-7.286,2.444-14.893,3.598-21.84,6.479c-0.033-2.197-1.055-4.063-1.68-5.76
	c-1.04-2.825-1.754-5.757-2.64-8.399c-2.864-8.542-5.144-17.125-7.921-25.44c-1.769-5.297-2.782-10.293-4.56-15.601
	c-6.957-20.776-12.669-42.106-19.68-63.119c-2.318-6.947-4.652-14.419-6.96-21.36c-0.997-2.997-1.329-5.693-2.4-8.64
	c-0.659-1.813-3.863-9.986-3.36-11.28c0.932-3.115,4.292-6.871,6-9.6c4.714-7.532,9.27-15.11,13.921-22.56
	c1.723-2.759,3.365-5.505,5.04-8.16c0.707-1.123,0.957-2.755,2.159-3.36c0,0.16,0,0.32,0,0.479c0.919,1.4,0.854,3.292,1.44,5.04
	c1.287,3.848,2.236,7.932,3.6,12c4.692,13.999,8.207,28.51,12.96,42.72c6.724,20.099,12.274,41.108,18.96,61.2
	c2.583,7.764,4.132,15.282,6.721,23.04c3.665,10.981,6.981,22.595,10.56,33.601c0.16,1.04,0.32,2.08,0.48,3.12
	C411.61,448.11,413.455,451.774,414.04,455.76z"/>
<path fill="none" stroke="#726F6F" stroke-miterlimit="10" d="M647.56,415.2c0,10.958,0,21.921,0,32.88c-0.079,0-0.159,0-0.239,0
	c0,0.08,0,0.16,0,0.24c-3.658,0.067-7.775,1.08-11.04,1.92c-5.147,1.324-10.47,1.415-15.36,2.64c-1.92,0.24-3.84,0.48-5.76,0.72
	c-6.176,1.592-13.254,2.055-19.44,3.601c-1.919,0.24-3.84,0.479-5.76,0.72c-5.345,1.372-11.19,1.444-16.8,2.88
	c-6.694,1.713-14.372,2.928-21.36,3.84c0.015-0.697,0.231-0.333,0-0.72c-1.739,1.301-8.477,2.497-11.28,2.64
	c0.095,0.704,0.394,0.302-0.239,0.721c-1.354,0.923-3.341,0.885-5.04,1.439c-3.042,0.995-6.395,2.553-9.84,2.88
	c-0.291-2.821-1.602-5.504-2.4-7.92c-1.099-3.321-1.538-6.293-2.64-9.6c-0.798-2.396-1.974-4.95-2.4-7.68
	c2.881-0.086,4.759-1.313,7.68-1.44c0.109,0.836,0.29,0.959,0.48,1.68c0.08,0,0.16,0,0.24,0c-0.106-0.585-0.291-1.409-0.48-1.92
	c0.16,0,0.32,0,0.48,0c2.271-1.487,7.144-1.56,10.079-2.399c8.725-2.497,17.9-3.916,26.881-6.48
	c14.711-4.2,30.401-7.104,45.119-11.28c3.838-1.088,7.204-1.311,11.04-2.399c6.687-1.898,13.694-3.077,20.641-5.04
	C642.443,416.463,644.987,415.552,647.56,415.2z"/>
<path fill="none" stroke="#726F6F" stroke-miterlimit="10" d="M574.36,497.52c-0.089-0.497-0.059-0.462-0.24-0.72
	c-0.101,0.859,0.113,0.604-0.48,0.96c-2.733,1.796-7.9,2.229-11.279,3.36c-7.564,2.533-15.479,4.349-23.28,6.96
	c-22.188,7.426-45.47,13.26-67.68,20.64c-5.99,1.99-11.772,3.042-17.761,5.04c-26.954,8.997-55.104,15.998-82.08,24.96
	c-7.825,2.601-15.458,4.11-23.279,6.721c-14.878,4.963-30.271,8.666-45.36,13.68c-5.694,1.892-11.595,3.322-17.52,5.28
	c-3.491,1.153-7.424,2.688-11.04,3.6c-40.396,0-80.804,0-121.2,0c0-0.08,0-0.16,0-0.24c0.193-0.245,0.085-0.064,0.24-0.479
	c1.929-1.396,3.523-4.025,5.76-5.04c2.632-1.194,5.408-1.243,8.16-2.16c6.803-2.267,13.875-3.906,20.88-6.24
	c15.97-5.322,32.757-9.595,48.72-14.88c4.409-1.459,8.554-2.132,12.96-3.6c12.807-4.268,26.087-7.417,39.12-11.761
	c40.671-13.551,82.887-23.987,123.6-37.439c15.643-5.168,31.624-9.071,47.04-14.16c6.075-2.005,12.167-3.022,18-5.28
	c0.142,0.539,0.18,0.638,0.48,0.96c0-0.159,0-0.319,0-0.479c-0.193-0.245-0.085-0.066-0.24-0.48c0.08,0,0.16,0,0.24,0
	c0-0.08,0-0.16,0-0.239c3.79-0.376,7.665-2.228,11.04-3.36c5.201-1.746,10.148-2.587,15.359-4.32
	c2.489-0.828,5.159-2.217,8.16-2.399c0.08,0.319,0.16,0.64,0.24,0.96c0.08,0,0.16,0,0.24,0c0-0.24,0-0.48,0-0.721
	c-0.206-0.451-0.114-0.177,0-0.72c4.37-0.469,7.74-3.048,12.24-3.36c0.079,0.32,0.159,0.641,0.239,0.961c0.08,0,0.16,0,0.24,0
	c-0.021-0.744-0.142-0.967,0-1.2c2.026-1.475,5.367-1.546,7.92-2.4c3.989-1.333,8.414-2.852,12.48-4.08
	c5.531-1.671,11.32-1.205,17.04-2.64c6.801-1.707,14.317-1.836,21.359-3.601c4.927-1.233,10.4-1.305,15.6-2.64
	c4.461-1.146,9.412-1.214,14.16-2.4c10.655-2.661,22.273-3.516,33.12-5.76c0,8.959,0,17.921,0,26.88c-0.08,0-0.16,0-0.24,0
	c0,0.08,0,0.16,0,0.24c-2.459,0.264-4.849,1.459-6.96,2.16c-3.288,1.091-6.548,1.869-9.6,2.88c-11.396,3.774-22.696,6.05-34.08,9.84
	c-4.614,1.537-9.549,2.709-14.4,4.32C579.813,495.94,577.179,497.106,574.36,497.52z"/>
<path fill="none" stroke="#726F6F" stroke-miterlimit="10" d="M444.52,496.08c-2.773,0.264-5.521,1.583-7.92,2.399
	c-5.101,1.736-10.24,2.909-15.119,4.561c-1.885,0.637-4.048,1.389-5.761,1.68c-1.098,0.188-0.84-0.768-1.92,0
	c0.193,0.245,0.085,0.065,0.24,0.48c-59.274,17.758-118.566,35.521-177.84,53.279c-0.421-3.948-2.057-6.758-3.12-10.319
	c-2-6.698-3.324-13.068-5.52-19.681c-1.245-3.75-2.964-7.875-3.6-12c0.573-0.201,0.395-0.096,0.72-0.479
	c-1.613-0.278-0.774-1.251-2.16-1.68c0.16,0.72,0.32,1.439,0.48,2.159c-1.822,0.099-3.349,0.959-4.8,1.44
	c-3.114,1.032-6.491,1.388-9.12,2.88c0.24,0.8,0.48,1.601,0.72,2.4c-0.16,0-0.32,0-0.48,0c-1.365,1.023-3.952,1.208-5.52,1.92
	c1.44,5.119,2.88,10.24,4.32,15.359c-3.215,0.35-6.933,1.736-9.84,2.881c-0.406-3.675-2.263-7.486-3.36-10.801
	c-1.696-5.124-2.612-10-4.32-15.119c-1.597-4.789-3.555-9.902-4.8-14.881c1.726-0.341,3.511-1.167,5.04-1.68
	c4.859-1.629,9.761-2.771,14.4-4.32c8.833-2.948,17.656-4.529,26.4-7.68c3.516-1.267,7.509-2.432,11.04-3.6
	c1.02-0.337,3.894-1.229,4.32-0.96c1.083,1.461,1.06,3.88,1.68,5.76c0.979,2.969,2.141,6.383,3.12,9.36
	c0.409,1.243,1.304,3.729,0.96,4.56c-2.132,1.561-6.804,1.949-9.6,2.88c-6.898,2.298-14.326,4.814-21.36,6.72c0,0.08,0,0.16,0,0.24
	c0.48,0,0.96,0,1.44,0c2.023-1.326,4.979-1.335,7.44-2.16c5.071-1.7,10.754-3.345,15.84-5.04c2.455-0.817,5.631-1.353,7.2-2.16
	c0.94-0.483,2.505-0.739,3.36-0.96c0.4,0.08,0.8,0.16,1.2,0.24c9.981-4.802,23.036-6.868,34.08-10.56
	c20.615-6.894,42.262-12.331,62.88-19.2c8.588-2.861,17.378-4.632,25.68-7.68c2.989-1.098,5.818-1.383,8.88-2.4
	c9.063-3.013,18.862-5.406,27.84-8.64c2.878-1.037,5.84-1.89,8.88-2.4c0.938-0.157,2.663-1,3.12-0.72c0.721,2,1.44,4,2.16,6
	c-0.011,0.051-0.664,0.227-0.479,0.479c2.905,3.998,4.789,12.473,6.72,17.521c1.027,2.684,2.8,6.901,1.439,8.88
	c0.741,0.001,1.232,0.082,1.681,0.24c0.479,1.68,0.96,3.359,1.439,5.04c-1.133,0.282-1.756,0.885-2.88,1.199c0,0.08,0,0.16,0,0.24
	c0.16,0,0.32,0,0.48,0c0.633-0.414,2.11-0.562,2.88-0.72C443.313,492.978,444.31,494.12,444.52,496.08z"/>
<path fill="none" stroke="#726F6F" stroke-miterlimit="10" d="M342.28,480.48"/>
<path fill="none" stroke="#726F6F" stroke-miterlimit="10" d="M647.56,490.08c0,23.998,0,48.002,0,72c-0.159,0-0.319,0-0.479,0
	c-1.162,0.763-2.608,0.718-4.08,1.2c-3.887,1.272-7.904,2.256-12,3.6c-10.817,3.551-23.22,6.771-33.36,10.32
	c-0.866,0.303-4.86,1.378-5.279,0.96c-1.397,1.208-10.438,4.177-12,3.359c-0.07,0.56-0.108,0.595-0.24,0.96
	c-2.044,0.125-3.845,1.115-5.521,1.681c-4.251,1.433-8.655,2.696-12.72,3.84c-57.434,0-114.886,0-172.32,0
	c-16.397,0-32.802,0-49.199,0c-4.399,0-8.801,0-13.2,0c-1.483,0-4.264,0.387-5.28-0.24c0.16,0,0.32,0,0.48,0
	c104.949-31.517,209.931-63.043,314.88-94.56c0.056,1.127,0.368,1.813,0.72,2.64c0.08,0,0.16,0,0.24,0c0-0.319,0-0.64,0-0.96
	c-0.399-0.497-0.458-0.997-0.48-1.92c0.16,0,0.32,0,0.48,0C639.271,492.164,645.89,490.323,647.56,490.08z"/>
<path fill="none" stroke="#726F6F" stroke-miterlimit="10" d="M573.64,495.36c0,0.159,0,0.319,0,0.479c0.08,0,0.16,0,0.24,0
	c0-0.16,0-0.32,0-0.479C573.8,495.36,573.72,495.36,573.64,495.36z"/>
<path fill="none" stroke="#726F6F" stroke-miterlimit="10" d="M573.88,496.08c0,0.16,0,0.32,0,0.479c0.08,0,0.16,0,0.24,0
	c0-0.159,0-0.319,0-0.479C574.04,496.08,573.96,496.08,573.88,496.08z"/>
<path fill="none" stroke="#726F6F" stroke-miterlimit="10" d="M126.52,549.36c-0.254-2.519-1.45-4.836-2.16-6.96
	c-0.843-2.521-1.077-4.681-1.92-7.2c-1.334-3.991-3.041-8.26-4.08-12.48c2.02-0.203,3.838-1.123,5.52-1.68
	c3.282-1.087,6.542-1.867,9.6-2.88c9.414-3.117,18.671-5.027,28.08-8.16c4.074-1.357,8.423-2.412,12.72-3.84
	c1.93-0.643,4.01-1.574,6.24-1.92c0.683,3.736,2.203,7.595,3.36,11.04c1.562,4.651,2.289,9.036,3.84,13.68
	c1.718,5.143,3.742,10.693,5.04,16.08c-0.16,0-0.32,0-0.48,0c-1.274,0.925-3.138,0.885-4.8,1.439
	c-3.194,1.066-6.604,1.734-10.08,2.881c-8.564,2.822-17.828,5.322-26.4,8.159c-3.034,1.005-6.075,1.715-8.88,2.641
	c-0.949,0.313-3.181,0.971-3.6,0.72c-1.52-4.56-3.04-9.121-4.56-13.68C131.437,547.732,129.186,548.957,126.52,549.36z"/>
<path fill="none" stroke="#726F6F" stroke-miterlimit="10" d="M375.88,510.96c0.245,0.193,0.066,0.085,0.48,0.24
	C376.115,511.007,376.294,511.115,375.88,510.96z"/>
<path fill="none" stroke="#726F6F" stroke-miterlimit="10" d="M375.16,511.2c0.245,0.192,0.064,0.085,0.479,0.24
	C375.395,511.247,375.574,511.355,375.16,511.2z"/>
<path fill="none" stroke="#726F6F" stroke-miterlimit="10" d="M374.2,511.44c-2.384,1.722-7.923,2.093-11.04,3.119
	c-4.476,1.476-9.254,2.527-13.92,4.08c-2.474,0.823-5.054,2.002-7.681,2.641c0,0.08,0,0.16,0,0.24c0.16,0,0.32,0,0.48,0
	c2.076-1.491,5.569-1.536,8.16-2.4c5.642-1.882,11.877-3.65,17.52-5.521c2.265-0.75,5.478-0.779,7.2-2.159
	C374.68,511.44,374.44,511.44,374.2,511.44z"/>
<path fill="none" stroke="#726F6F" stroke-miterlimit="10" d="M223.24,516.96c1.839,6.319,3.68,12.641,5.52,18.96
	c-0.32,0.08-0.64,0.16-0.96,0.24c0,0.08,0,0.16,0,0.24c0.682-0.077,0.497-0.253,0.96,0c0.89,1.182,1.325,3.743,1.68,5.279
	c-4.479,1.28-8.96,2.561-13.44,3.841c-0.667-3.608-1.874-6.646-2.88-9.601c-0.48-2-0.96-4-1.44-6c-0.673-2.072-1.44-7.2-1.68-7.2
	c-0.443-0.015-0.991-1.402-1.2-1.92c0.16,0,0.32,0,0.48,0C211.767,519.782,221.043,517.168,223.24,516.96z"/>
<path fill="none" stroke="#726F6F" stroke-miterlimit="10" d="M340.84,521.521c0.245,0.192,0.066,0.085,0.48,0.239
	C341.075,521.567,341.254,521.675,340.84,521.521z"/>
<path fill="none" stroke="#726F6F" stroke-miterlimit="10" d="M112.84,524.4c0.16,0,0.32,0,0.48,0c0.17,2.867,1.586,5.717,2.4,8.159
	c1.36,4.083,1.961,7.974,3.36,12c0.353,1.017,2.197,6.058,1.92,6.48c-1.352,1.014-4.254,1.514-6,1.92
	c-0.24-0.88-0.48-1.76-0.72-2.64c-18.318,5.76-36.642,11.521-54.96,17.279c0-0.159,0-0.319,0-0.479
	c-1.464-2.016-1.562-5.396-2.4-7.92c-1.751-5.271-3.93-10.842-5.28-16.32c4.667-0.91,9.542-2.849,13.92-4.32
	c9.051-3.039,18.305-5.209,27.12-8.159c4.859-1.627,9.76-2.773,14.4-4.32C108.974,525.449,111.35,525.482,112.84,524.4z"/>
<path fill="none" stroke="#726F6F" stroke-miterlimit="10" d="M214.84,540.479c0.233,1.979,1.148,3.486,1.44,5.521
	c-3.561,0.37-7.16,2.075-10.32,3.12c-5.999,1.982-11.786,3.056-17.76,5.04c-3.215,1.067-6.728,2.773-10.32,2.64
	c-0.623-1.396-1.054-3.271-1.68-4.8c0.16,0,0.32,0,0.48,0c0.857-0.625,1.982-0.543,3.12-0.96c3.204-1.174,6.536-1.951,10.08-3.12
	c5.833-1.924,11.951-3.274,18-5.28C210.017,541.932,212.437,540.836,214.84,540.479z"/>
<path fill="none" stroke="#726F6F" stroke-miterlimit="10" d="M231.88,546.96c-1.817,0.09-3.355,0.955-4.8,1.44
	c-3.82,1.282-7.668,2.149-11.28,3.359c-10.191,3.414-20.29,5.495-30.48,8.88c-3.978,1.321-8.349,2.332-12.48,3.841
	c-1.088,0.396-3.404,1.55-4.32,1.199c-0.26-0.218-0.021,0.02-0.24-0.239c1.689-1.361,2.095-4.269,3.84-5.521
	c0.889-0.587,2.082-0.459,3.12-0.96c4.461-2.151,9.855-2.881,14.88-4.56c9.689-3.238,20.086-5.895,29.76-9.12
	c3.674-1.226,7.359-1.719,10.8-3.12C230.894,543.926,231.701,545.087,231.88,546.96z"/>
<path fill="none" stroke="#726F6F" stroke-miterlimit="10" d="M45.64,544.56c0.24,0.08,0.48,0.16,0.72,0.24
	c0.17,3.113,1.758,6.214,2.64,8.88c1.376,4.158,1.973,8.35,3.6,12.24c-1.898,0.207-3.685,1.15-5.28,1.68
	c-3.212,1.066-6.375,1.891-9.36,2.88c-11.02,3.656-21.863,6.172-32.88,9.841c-5.193,1.729-11.444,4.456-17.04,5.279
	c-1.504-7.388-5.371-14.081-6.48-21.6c0.08,0,0.16,0,0.24,0c0-0.08,0-0.16,0-0.24c2.013-0.187,3.848-1.116,5.52-1.68
	c3.274-1.103,6.546-1.854,9.6-2.88c9.842-3.307,19.914-5.665,29.52-8.88c4.86-1.626,9.76-2.773,14.4-4.32
	C42.452,545.462,44.426,545.51,45.64,544.56z"/>
<path fill="none" stroke="#726F6F" stroke-miterlimit="10" d="M168.76,566.4c1.991-0.102,3.339-1.108,4.8-1.681
	c3.102-1.213,6.572-1.879,9.6-2.88c10.914-3.608,21.75-5.752,32.64-9.359c3.829-1.27,8.17-2.573,12-3.841
	c1.021-0.338,3.895-1.229,4.32-0.96c0.89,1.183,1.325,3.744,1.68,5.28c-0.16,0-0.32,0-0.48,0c-1.161,0.768-2.612,0.708-4.08,1.2
	c-3.057,1.022-6.321,1.784-9.6,2.88c-10.875,3.634-22.564,6.423-33.36,10.32c-3.558,1.283-6.914,1.688-10.56,2.88
	c-1.162,0.379-3.507,1.624-4.56,1.2C169.593,570.9,168.812,568.406,168.76,566.4z"/>
<path fill="none" stroke="#726F6F" stroke-miterlimit="10" d="M121.24,574.56c-4.327,0.486-8.816,2.552-12.72,3.841
	c-5.842,1.928-11.479,2.853-17.28,4.8c-4.317,1.45-9.505,3.544-14.16,4.8c-4.88,0-9.76,0-14.64,0
	c-0.206-2.009-1.135-3.636-1.68-5.28c-1.5-4.529-2.946-8.909-4.08-13.439c0.08,0,0.16,0,0.24,0c0-0.08,0-0.16,0-0.24
	c2.894-0.242,5.212-1.539,8.4-2.64c4.386-1.516,8.798-2.646,12.96-4.08c8.198-2.827,16.5-4.932,24.48-7.681
	c3.759-1.295,7.487-1.917,11.04-3.359c0,0.16,0,0.319,0,0.479c1.004,1.354,1.054,3.587,1.68,5.28
	c1.333,3.601,3.099,7.555,3.84,11.52c-0.573,0.202-0.395,0.097-0.72,0.48c0.626,0.039,0.814,0.103,1.2,0.24
	C120.28,571.04,120.76,572.8,121.24,574.56z"/>
<path fill="none" stroke="#726F6F" stroke-miterlimit="10" d="M121.96,574.08c-0.187-1.396-1.923-4.495-1.44-5.28
	c0.968-0.64,2.112-0.541,3.36-0.96c4.169-1.398,8.564-2.369,12.96-3.84c7.789-2.606,15.973-4.531,24-7.2
	c4.623-1.537,9.916-3.764,14.88-4.56c0.32,1.438,0.64,2.88,0.96,4.319c-9.188,5.527-23.776,8.032-36,12
	c-3.608,1.172-7.433,2.119-11.28,3.36C127.132,572.651,124.691,573.917,121.96,574.08z"/>
<path fill="none" stroke="#726F6F" stroke-miterlimit="10" d="M235.48,558.96c-2.206,0.229-4.355,1.286-6.24,1.92
	c-3.514,1.182-7.044,2.021-10.32,3.12c-8.667,2.907-17.521,4.45-25.92,7.68c0-0.159,0-0.319,0-0.479
	c-0.851-1.245-0.871-3.621-1.44-5.04c0.16,0,0.32,0,0.48,0c0.924-0.664,2.12-0.546,3.36-0.96c3.36-1.123,6.981-1.925,10.56-3.12
	c9.045-3.019,18.662-6.154,28.08-8.4c0,0.16,0,0.32,0,0.48C234.833,555.198,235.294,557.479,235.48,558.96z"/>
<path fill="none" stroke="#726F6F" stroke-miterlimit="10" d="M168.28,560.88c0.798-0.009,1.432,0.067,1.92,0.24
	c-0.151,0.421-0.046,0.232-0.24,0.479c-2.234,6.606-11.988,7.377-18.72,9.601c-16.673,5.505-34.243,9.843-50.88,15.359
	c-4.103,1.36-8.92,1.439-14.64,1.44c-1.54,0-4.454,0.411-5.52-0.24c0.16,0,0.32,0,0.48,0c2.082-1.5,5.541-1.532,8.16-2.399
	c1.73-0.573,3.838-1.456,5.28-2.16c2.562-1.25,5.444-1.25,8.16-2.16c15.368-5.147,31.646-9.285,47.04-14.4
	c4.802-1.596,9.614-2.811,14.16-4.319C165.091,561.785,167.069,561.831,168.28,560.88z"/>
<path fill="none" stroke="#726F6F" stroke-miterlimit="10" d="M647.56,562.56c0,8.479,0,16.961,0,25.44c-14.719,0-29.44,0-44.159,0
	c-0.239-4.035-2.742-7.349-3.36-11.28c0.16,0,0.32,0,0.479,0c0.926-0.663,2.12-0.545,3.36-0.96c3.849-1.288,7.931-2.237,12-3.6
	c6.443-2.157,13.232-3.778,19.92-6C639.451,564.947,643.557,563.141,647.56,562.56z"/>
<path fill="none" stroke="#726F6F" stroke-miterlimit="10" d="M-24.44,565.92c0.282,2.5,1.443,5.029,2.16,7.2
	c1.015,3.074,1.384,5.822,2.4,8.88c0.599,1.802,1.519,3.512,1.68,5.76c-5.102,0.58-11.294,0.243-16.8,0.24c0-6.399,0-12.801,0-19.2
	C-31.219,568.396-28.277,566.306-24.44,565.92z"/>
<path fill="none" stroke="#726F6F" stroke-miterlimit="10" d="M-11.24,588c-0.08-0.56-0.16-1.12-0.24-1.68c0.16,0,0.32,0,0.48,0
	c1.944-1.294,4.832-1.37,7.2-2.16c4.015-1.339,8.238-2.426,12.48-3.84c9.413-3.138,19.15-5.67,28.8-8.88
	c2.984-0.993,6.148-1.813,9.36-2.881c1.93-0.642,3.902-1.682,6.24-1.92c0.089,0.498,0.058,0.462,0.24,0.721
	c0.1-0.859-0.113-0.604,0.48-0.96c0.235-0.191,0.658-0.348,0.96-0.48c0,0.16,0,0.32,0,0.48c1.281,1.732,1.36,4.556,2.16,6.72
	c1.748,4.728,3.568,9.869,4.8,14.88C37.402,588,13.078,588-11.24,588z"/>
<path fill="none" stroke="#726F6F" stroke-miterlimit="10" d="M167.32,566.64c0.24,0,0.48,0,0.72,0c0,0.16,0,0.32,0,0.48
	c0.784,1.07,0.751,2.925,0.72,4.8c-3.291,1.498-6.4,2.357-10.08,3.6c-0.845,0.285-2.314,0.102-2.64,0.24
	c-4.906,2.104-10.607,3.241-16.08,5.04c-7.527,2.475-15.648,5.014-23.28,7.2c-4.64,0-9.281,0-13.92,0c-1.362,0-3.891,0.344-4.8-0.24
	c1.642-0.167,3.165-0.974,4.56-1.439c4.071-1.36,8.152-2.309,12-3.601c11.195-3.76,22.624-6.412,33.6-10.08
	c4.308-1.439,8.651-2.481,12.72-3.84C162.974,568.088,165.896,568.07,167.32,566.64z"/>
<path fill="none" stroke="#726F6F" stroke-miterlimit="10" d="M150.52,584.64c-3.9,0.484-7.492,2.412-11.04,3.36
	c-3.919,0-7.84,0-11.76,0c-1.906,0-7.452,0.484-8.64-0.24c9.919-2.959,19.841-5.92,29.76-8.88c0,0.16,0,0.32,0,0.48
	C149.741,580.5,150.294,582.972,150.52,584.64z"/>
<path fill="none" stroke="#726F6F" stroke-miterlimit="10" d="M583,588c-0.25-2.142-1.352-3.629-1.68-5.76
	c3.841-0.223,7.389-2.266,11.04-3.12c0,0.16,0,0.32,0,0.479c1.327,1.805,1.72,6.169,2.64,8.4C591,588,587,588,583,588z"/>
</svg>
