<!-- Generator: Adobe Illustrator 15.0.0, SVG Export Plug-In . SVG Version: 6.00 Build 0)  -->
<!DOCTYPE svg PUBLIC "-//W3C//DTD SVG 1.1//EN" "http://www.w3.org/Graphics/SVG/1.1/DTD/svg11.dtd">
<svg version="1.1" id="cg_c" class="begin_svg" xmlns="http://www.w3.org/2000/svg" xmlns:xlink="http://www.w3.org/1999/xlink" x="0px" y="0px"
	 width="682.559px" height="384.158px" viewBox="0 0 682.559 384.158" enable-background="new 0 0 682.559 384.158"
	 xml:space="preserve">
<path fill="none" stroke="#000000" stroke-miterlimit="10" d="M255.427,22.23c0.434,0.506,0.699,0.479,1.68,0.479
	c0.454,0.332,1.467,0.324,1.92,0C257.883,22.469,256.975,22.238,255.427,22.23z M252.306,22.471
	c-1.867,1.383-4.232,1.397-5.521,3.358c0.08,0,0.16,0,0.24,0c1.404-1.731,4.637-2.594,7.2-3.119c0-0.079,0-0.159,0-0.239
	C253.587,22.471,252.946,22.471,252.306,22.471z M326.466,107.189c-0.002-0.65,0.01-1.104,0.24-1.439
	c0.074,2.285,2.02,6.636,3.119,8.16c0.719,0.998,2.002,1.271,2.4,2.642c-0.572,0.2-0.395,0.096-0.721,0.479c0.561,0,1.121,0,1.682,0
	c1.799-1.399,3.947-2.24,4.799-4.561c0.377-1.025,0.129-2.227,0-3.121c0-1.6,0-3.199,0-4.799c-0.693-3.049-1.506-6.184-3.119-8.4
	c-0.832-1.143-2.471-1.563-3.361-2.641c1.285-0.77,2.043-1.586,4.08-1.68c0.334,0.266,0.691,0.356,1.201,0.479
	c1.246,2,1.748,3.453,2.4,6.24c0.414,1.771-0.223,4.293,0.719,5.521c-0.041-2.992-0.33-7.688,0.48-10.08
	c0.881,0.159,1.759,0.319,2.642,0.479c0.078,0.239,0.158,0.479,0.238,0.719c0.813,0.955,0.424,3.354,0.479,5.041
	c0.32,2.4,0.641,4.8,0.961,7.199c1.432,5.235,3.057,10.058,4.32,15.84c0.766,3.509-0.631,6.938-1.441,9.121
	c-2.363,6.373-5.377,11.703-7.919,17.521c-1.434,3.278-2.83,6.522-4.08,9.84c-0.611,1.623-0.584,3.684-2.16,4.32
	c-1.404,1.28-3.643,0.493-6,0.959c-4.344,0.858-12.928-0.355-17.039-1.199c-0.074-2.146-1.02-4.615-2.4-5.521
	c-0.867-0.592-2.041-0.19-3.119-0.721c-1.373-0.675-1.988-2.773-3.6-3.359c-1.139-0.414-3.73,0.746-5.041,0.479
	c-1.051-0.213-2.451-1.131-3.602-1.44c-2.875-0.772-5.756,1.75-7.438,0.961c-1.757-1.94-2.737-5.178-3.84-7.68
	c-2.315-5.263-5.958-10.287-7.438-16.32c0.318,0,0.639,0,0.959,0c1.1,1.015,7.521,4.406,9.121,4.8c0-0.08,0-0.16,0-0.24
	c-3.564-2.254-6.75-6.271-4.562-11.521c0.08,0,0.16,0,0.239,0c0.043,4.979,3.597,9.358,6.24,12c0.793,0.795,3.469,2.358,3.601,2.881
	c-0.515,0.333-1.456,0.357-1.921,0.72c4.154,0.297,11.363-1.875,12-5.279c-0.16,0-0.318,0-0.479,0
	c-0.314,0.314-0.723,0.787-0.961,0.48c-0.402-1.115,0.859-4.992,0.24-7.201c-0.864-3.072-2.825-7.849-4.801-9.84
	c-0.688-0.693-1.773-0.914-2.399-1.681c2.021-0.181,4.113-0.905,6.479-0.239c1.396,0.395,2.727,1.291,4.32,1.68
	c0-0.078,0-0.158,0-0.238c-0.438-0.375-0.979-1.395-1.201-1.92c0.24,0,0.48,0,0.721,0c0-0.24,0-0.48,0-0.721
	c-1.492-0.435-2.525-1.531-4.079-1.92c-2.435-0.607-6.377,0.028-8.16,0.479c-2.797,0.707-5.698,0.606-7.92,1.92
	c-2.429,1.437-7.478,8.666-9.12,11.278c-0.08,0-0.16,0-0.238,0c0-0.08,0-0.159,0-0.239c-1.635-1.828,0.991-5.403,1.68-6.72
	c1.9-3.641,3.838-6.849,6-10.08c0.531-0.795,1.084-2.711,1.92-3.12c0.707-0.349,1.59,0.129,2.16-0.24
	c0.885-0.571,0.615-1.59,1.92-1.92c0.816-0.531,3.066-0.246,4.32-0.239c3.774,0.02,7.15,0.737,10.318,1.44c0-0.16,0-0.32,0-0.48
	c-1.748-0.456-3.089-1.667-4.8-2.159c-3.007-0.865-5.908-0.218-9.36-0.24c-0.14-1.115-0.688-1.312-0.479-1.92
	c0.824-2.73,3.574-5.127,5.039-7.439c2.898-4.574,5.709-9.527,7.92-14.641c0.873-2.016,1.596-4.119,2.16-6.24
	c0.316-1.189-0.178-2.768,0.721-3.359c0,0.16,0,0.32,0,0.48c1.668,2.166,2.096,5.396,3.119,8.16
	c3.811,10.271,4.662,23.125,3.119,36.238c0.08,0,0.16,0,0.24,0c0-0.16,0-0.318,0-0.479c1.844-2.023,2.18-5.764,3.121-8.641
	c3.76-11.513,3.566-28.373,0.959-41.041c0.16,0,0.32,0,0.48,0c1.938,2.875,5.389,4.893,8.16,6.961c1.445,1.078,2.65,2.76,4.08,3.84
	c1.436,1.084,3.92,2.533,4.561,4.32c-3.18,2.125-8.088,10.616-9.361,14.879c-0.527,1.768-0.92,5.811,0,7.201
	c0.469-9.709,5.73-15.724,9.84-21.841c0.26,0.218,0.021-0.02,0.24,0.24c2.133,1.408,9.238,9.33,10.08,11.76c-0.08,0-0.16,0-0.24,0
	c-1.736-1.26-4.117-2.135-6.959-2.159c-1.332,1.241-3.234,1.623-4.32,3.119c-2.883,3.969-3.844,8.356-3.84,15.36
	C325.44,106.792,325.587,107.031,326.466,107.189z M327.427,88.23c-1.814,3.65-4.359,6.264-4.801,11.52c0.08,0,0.16,0,0.24,0
	c0-0.159,0-0.319,0-0.479c0.828-1.207,0.596-3.108,1.199-4.56c0.563-1.354,1.654-2.87,2.4-4.079
	C326.829,90.041,327.653,88.503,327.427,88.23z M260.706,89.189c4.719-0.01,7.887,2.313,8.881,6c0,0.721,0,1.441,0,2.16
	c0.133,0.627,0.201,2.271-0.24,3.121c-1.367,2.629-3.629,4.088-6.96,4.799c-3.435,0.732-6.655-1.979-7.44-4.08
	c-0.16-0.959-0.319-1.92-0.479-2.879c-0.188-0.674-0.781-1.787-0.479-2.881c0.551-2.006,2.459-4.289,4.078-5.279
	C258.946,89.83,259.827,89.51,260.706,89.189z M340.866,91.59c0.9,0.346,1.431,1.432,1.681,2.399c-0.16,0-0.32,0-0.48,0
	c-0.755-0.703-1.527-0.799-1.919-1.92C340.448,91.914,340.644,91.808,340.866,91.59z M255.907,95.189
	c0.195,0.975,0.436,0.703,0.719,1.441c0.213,0.553-0.383,1.459-0.239,1.92c0.239,0.08,0.479,0.158,0.72,0.238
	c0.286-0.577,0.623-1.816,1.2-2.158c0.606,0.463,1.81,0.367,2.16-0.24C259.018,95.961,257.827,95.289,255.907,95.189z
	 M330.546,95.189c0.641,0,1.279,0,1.92,0c0.688,1.01,1.76,1.84,2.4,2.881c2.406,3.906,5.236,16.979-2.16,17.279
	c0-0.08,0-0.16,0-0.238c-3.736-1.188-6.715-11.422-4.561-17.041C328.606,96.869,329.698,96.031,330.546,95.189z M263.827,100.23
	c0.238,0,0.479,0,0.719,0c0.191-1,0.354-1.934,1.441-2.16c0.461,0.348,1.086,0.428,1.438,0.24c0.19-0.283,0.187-0.402,0.239-0.961
	c-1.279-0.239-2.561-0.479-3.84-0.719c-0.203,0.572-0.098,0.395-0.479,0.719C264.022,98.335,263.901,98.453,263.827,100.23z
	 M270.546,97.349c2.172,0.244,4.268,1.318,6.24,1.92c2.399,0.48,4.801,0.961,7.201,1.439c0,0.08,0,0.16,0,0.24
	c-0.08,0-0.16,0-0.24,0c-0.584,1.219-1.244,1.287-3.121,1.2c-2.414,1.638-9.967,0.56-10.799-1.44
	C270.405,99.978,270.538,98.625,270.546,97.349z M344.227,97.349c1.684,0.877,3.053,6.707,3.84,8.881
	c5.156,14.254,1.545,33.262-4.801,43.199c-0.08,0-0.16,0-0.238,0c0-0.08,0-0.16,0-0.24c-0.814-0.338-1.437-0.457-1.681-1.439
	c1.125-1.213,1.373-2.979,2.16-4.561c1.941-3.906,4.246-8.254,5.521-12.719c0.471-1.656,1.152-4.551,0.719-6.48
	c-0.631-2.811-0.803-5.729-1.68-8.399c-0.777-2.371-1.969-4.972-2.641-7.438C345.028,104.551,344.627,100.951,344.227,97.349z
	 M284.706,100.951c0.24,0.08,0.479,0.16,0.721,0.238c-0.15,0.422-0.047,0.234-0.24,0.48c-0.283,0.193-0.402,0.186-0.96,0.24
	C284.396,101.348,284.472,101.375,284.706,100.951z M253.266,101.91c0.32,0,0.642,0,0.96,0c0.309,0.498,0.499,0.554,0.721,1.201
	c0.252,0.371,0.248,0.979,0.24,1.68c-0.16,0-0.32,0-0.48,0C252.923,106.058,251.763,103.439,253.266,101.91z M260.467,102.15
	c-0.156,0.303-0.263,0.496-0.479,0.721c0.15,0.42,0.045,0.232,0.239,0.479c0.324,0.391,0.153,0.27,0.72,0.48
	c0.295-0.547,0.394-0.541,0.48-1.439c-0.26-0.219-0.021,0.02-0.24-0.24C260.946,102.15,260.706,102.15,260.467,102.15z
	 M269.106,102.39c1.256,0.035,3.364,0.568,3.84,1.439c-0.881,0.24-1.761,0.479-2.641,0.721
	C270.114,103.262,269.548,103.301,269.106,102.39z M260.467,102.631c0.61,0.348,0.271-0.054,0.479,0.719c-0.16,0-0.32,0-0.479,0
	C260.467,103.111,260.467,102.871,260.467,102.631z M268.386,103.111c0.852,0.398,1.098,0.465,1.2,1.68
	c-0.261,0.218-0.021-0.02-0.24,0.24c-1.146,0.141-1.537,0.537-2.642,0.719c-0.133-0.385-0.19-0.575-0.238-1.198
	C267.271,104.303,267.956,103.744,268.386,103.111z M281.587,103.349c0.16,0,0.32,0,0.479,0c0,0.08,0,0.16,0,0.24
	c-0.078,0-0.158,0-0.238,0c-0.354,0.703-0.262,0.773-1.201,0.961c-0.438-0.307-1.26-0.41-1.92-0.48c0-0.16,0-0.32,0-0.479
	C279.635,103.625,281.038,103.719,281.587,103.349z M282.306,105.031c0.08-0.399,0.16-0.801,0.239-1.201
	c0.582-0.313,0.681-0.432,1.681-0.479c0,0.08,0,0.16,0,0.24C283.462,104.203,283.534,104.787,282.306,105.031z M274.146,104.07
	c1.531-0.012,5.863,0.75,6.721,1.439c-2.135,1.727-3.088,5.027-4.561,7.439c-1.818,2.979-4.277,5.858-5.279,9.602
	c-0.261-0.219-0.021,0.02-0.24-0.24c-1.359-4.08-2.721-8.16-4.08-12.24c0.311,6.107,4.156,10.857,4.801,16.562
	c-0.682,0.437-1.063,0.932-1.439,1.68c0.08,0,0.159,0,0.239,0c0.56-0.399,1.12-0.801,1.681-1.2c0,0.159,0,0.319,0,0.479
	c0.364,0.454,0.428,0.86,0.479,1.68c-0.88,1.361-1.761,2.722-2.64,4.08c0.16,0,0.318,0,0.479,0c0.813-0.86,2.098-2.053,3.12-2.64
	c0.344,2.605,2.168,5.035,3.119,7.199c2.082,4.734,4.196,9.062,6.479,13.439c3.1,5.941,5.732,11.957,9.12,17.521
	c1.124,1.847,1.519,3.912,2.64,5.761c4.508,7.422,8.342,15.86,11.521,24.481c2.078,5.633,3.6,11.535,3.6,18.959
	c0,2.178,0.26,7.15-0.959,7.92c0.824-5.975-0.813-11.373-2.16-15.84c-2.459-8.16-4.957-15.17-8.879-21.6
	c-3.592-5.884-6.438-11.734-10.08-17.521c-7.774-12.348-15.692-24.668-21.84-38.641c-1.674-3.803-3.625-7.963-5.281-12
	c-0.885-2.162-1.487-4.672-2.16-6.721c-0.159-0.959-0.319-1.92-0.479-2.881c-0.8-1.861-1.826-3.883-1.92-6.479
	c0.159,0,0.319,0,0.479,0c2.185,2.252,5.945,1.414,9.121,0.959c0.133,0.387,0.191,0.578,0.24,1.201
	c-0.48,0.16-0.961,0.318-1.441,0.479c0,0.08,0,0.16,0,0.239c0.16,0,0.32,0,0.48,0c1.02-0.85,3.27,0.104,4.801-0.479
	c0.238-0.56,0.479-1.119,0.719-1.68C271.669,104.986,273.405,104.633,274.146,104.07z M268.866,105.51
	c0.609,0.351,0.271-0.052,0.479,0.721c-0.16,0-0.319,0-0.479,0c-0.312,0.211-0.592,0.216-1.199,0.24c0-0.16,0-0.32,0-0.479
	C268.176,105.883,268.542,105.775,268.866,105.51z M290.946,108.871c-1.56,0.938-4.158,0.367-5.521,1.439
	c2.871-0.188,6.551-1.828,9.84-0.961c1.231,0.326,3.829,1.805,5.04,1.201c-1.521-0.561-3.04-1.121-4.561-1.682
	C294.146,108.871,292.546,108.871,290.946,108.871z M343.266,110.791c0.084,0.851,0.104,1.105,0.721,1.439c0-0.24,0-0.48,0-0.721
	C343.702,111.253,343.592,111.029,343.266,110.791z M342.547,111.99c0.08,0.4,0.16,0.801,0.24,1.199c0.08,0,0.16,0,0.238,0
	c0-0.318,0-0.639,0-0.959C342.868,112.15,342.708,112.07,342.547,111.99z M250.626,112.71c0.02,0.607,0.029,0.892,0.24,1.199
	C250.849,113.303,250.837,113.017,250.626,112.71z M358.147,153.51c-5.719,0.135-14.543,0.178-14.4-4.56
	c1.73-1.231,2.648-3.492,3.84-5.281c3.723-5.592,6.803-12.159,9.119-19.198c0.695-2.11,1.172-8.703,2.16-10.08
	c0,0.16,0,0.319,0,0.479c1.395,2.129,0.564,7.08,1.201,10.08c0.395,1.861,0.24,4.703,0.24,6.959
	C360.307,140.18,359.014,146.71,358.147,153.51z M288.306,116.551c5.936-0.021,7.5,5.896,8.88,10.56
	c0.447,1.512,1.317,4.659,0.24,6.239c-0.674,2.578-3.575,4-6.722,4.08c-0.93-0.729-2.159-0.981-3.118-1.681
	c-2.771-2.014-4.226-5.34-5.521-8.879c-0.41-1.121-1.695-4.201-0.721-5.762C282.419,117.258,285.604,118.275,288.306,116.551z
	 M254.226,123.51c1.813,0.075,6.827,1.514,7.92,2.399c1.092,1.193,2.934,5.678,3.36,7.439c-0.08,0-0.16,0-0.24,0
	c-1.685-1.783-3.913-3.453-6.239-4.561c0,0.08,0,0.16,0,0.24c1.564,0.938,6.989,5.348,7.92,6.721
	c1.088,1.604,1.502,3.551,2.399,5.279c0.531,1.022,1.338,1.903,1.681,3.12c-0.16,0-0.32,0-0.48,0
	c-0.905-1.102-3.416-1.303-5.039-0.961c0,0.08,0,0.16,0,0.24c2.332,0.11,4.156,0.932,6,1.44c1.039,1.92,2.08,3.84,3.119,5.76
	c-0.159,0-0.319,0-0.479,0c-2.934,2.119-7.8-2.713-9.361-3.84c-6.368-4.6-17.743-9.783-12.719-21.84
	C252.721,124.553,253.626,124.029,254.226,123.51z M273.907,125.189c0.158,0,0.318,0,0.479,0c-0.367,0.869-0.829,2.227-1.682,2.641
	c0-0.16,0-0.319,0-0.479C272.259,126.439,273.407,125.9,273.907,125.189z M331.745,126.39c-0.195,0.879-0.424,1.271-0.479,2.398
	c0.08,0,0.16,0,0.238,0c0,0.08,0,0.16,0,0.24c0.08,0,0.16,0,0.24,0c0-0.08,0-0.16,0-0.24c0.463-0.504,0.625-1.281,0.721-2.158
	C332.226,126.551,331.985,126.471,331.745,126.39z M253.747,127.349c0.117,0.713,1.664,0.531,3.119,0.48
	c0.332,0.266,0.688,0.356,1.199,0.479C257.157,127.465,255.522,127.326,253.747,127.349z M252.786,128.31
	c-0.25,0.676-0.604,0.328,0,0.721c0.209-0.287,0.197-0.271,0.479-0.479C253.021,128.357,253.2,128.465,252.786,128.31z
	 M362.227,153.75c0.131-2.114,1.322-4.18,1.92-6c0.879-3.758,1.76-7.52,2.639-11.278c0.438-1.709,0.299-6.242,1.441-6.961
	c0,0.08,0,0.16,0,0.239c5.521,5.533,9.059,14.845,9.119,25.921c-0.387,0.135-0.576,0.192-1.199,0.239
	c-1.395-0.852-3.615,0.156-5.281-0.239C367.059,154.762,366.854,153.721,362.227,153.75z M199.266,130.71
	c0.089,0.498,0.06,0.462,0.24,0.72c0-0.24,0-0.479,0-0.72C199.427,130.71,199.346,130.71,199.266,130.71z M253.266,131.669
	c0.142,2.962,1.997,5.207,4.08,6.24c-0.575-0.912-1.565-1.516-2.16-2.399C254.546,134.555,254.239,132.267,253.266,131.669z
	 M260.226,131.669c-0.281,0.193-0.402,0.187-0.96,0.24c0,0.16,0,0.32,0,0.48c0.24,0,0.479,0,0.722,0
	c0.205-0.156,0.754-0.32,0.959-0.48C260.706,131.83,260.467,131.75,260.226,131.669z M199.507,131.91c0,0.16,0,0.32,0,0.48
	c0.08,0,0.16,0,0.24,0c0-0.16,0-0.32,0-0.48C199.667,131.91,199.587,131.91,199.507,131.91z M258.786,133.83
	c-0.019,2.386,1.183,4.349,2.641,5.281C260.739,137.642,259.853,135.123,258.786,133.83z M261.907,139.349
	c0.728,1.492,0.92,3.506,3.119,3.602c0-0.08,0-0.16,0-0.24C263.333,141.89,263.286,140.342,261.907,139.349z M289.266,142.23
	c0,0.479,0,0.959,0,1.439c0.16,0,0.32,0,0.479,0c0-0.4,0-0.801,0-1.199C289.587,142.39,289.427,142.31,289.266,142.23z
	 M287.587,143.43c0.089,0.498,0.059,0.463,0.24,0.722c0-0.24,0-0.48,0-0.722C287.747,143.43,287.667,143.43,287.587,143.43z
	 M331.745,145.111c-1.246,1.174-2.607,2.197-3.84,3.359c0.08,0.238,0.16,0.479,0.24,0.719c0.611-0.254,1.037-0.52,1.68-0.719
	c0-0.08,0-0.16,0-0.24c-0.398,0.08-0.799,0.16-1.199,0.24c0-0.16,0-0.32,0-0.48c0.797-0.574,1.359-1.324,2.4-1.68
	c-0.078,0.682-0.254,0.496,0,0.959c0-0.08,0-0.16,0-0.238C331.538,146.566,332.063,145.691,331.745,145.111z M424.147,252.632
	c0.4-16.43-8.615-25.805-15.604-35.041c-1.52-1.439-3.039-2.881-4.559-4.32c-0.721-0.879-1.441-1.76-2.16-2.639
	c-0.561-0.4-1.121-0.803-1.68-1.201c-1.229-1.688-1.193-4.734-1.441-7.439c-0.104-1.162,0.24-2.822-0.238-3.6
	c-0.078,2.799-0.158,5.6-0.238,8.398c-0.16,0-0.32,0-0.48,0c-0.891-0.846-2.1-1.188-3.121-1.92c-1.35-0.971-2.41-2.422-3.84-3.359
	c0,0.08,0,0.158,0,0.238c0.08,0,0.16,0,0.24,0c2.123,3.225,6.295,5.848,9.361,8.16c1.771,1.34,3.443,3.488,4.799,5.279
	c1.201,1.121,2.398,2.24,3.6,3.361c2.982,3.941,6.234,7.713,8.881,12c1.9,3.076,3.162,7.459,4.32,11.039
	c0.479,2.479,0.959,4.961,1.438,7.439c1.273,5.689-0.297,12.711-1.92,16.561c-5.111,12.127-13.676,18.262-25.92,23.279
	c0-0.16,0-0.318,0-0.479c2.674-2.861,3.371-8.48,4.32-12.961c2.99-0.947,7.074-5.521,8.879-7.92c3.119-4.143,6.619-7.85,8.4-13.439
	c1.393-4.367-3.053-12.699-4.799-16.08c-4.275-8.277-9.344-14.771-14.641-21.84c-3.73-4.98-9.082-8.83-10.801-15.84
	c-0.08,0-0.16,0-0.24,0c0,0.16,0,0.318,0,0.479c1.508,2.189,1.939,4.98,3.361,7.199c2.551,3.988,6.527,7.26,9.357,11.039
	c4.484,5.988,8.633,11.771,12.24,18.723c1.826,3.516,3.191,6.801,4.563,11.039c0.309,0.959,1.143,2.426,0.719,4.078
	c-2.551,9.982-12.443,20.297-20.879,24.48c0-0.4,0-0.799,0-1.199c1.063-1.535,0.502-3.814,0.959-6
	c1.543-7.363-0.787-18.176-2.879-23.281c-1.709-4.168-3.23-8.727-5.521-12.479c-4.102-6.719-9.467-12.416-13.92-18.721
	c-2.814-3.986-5.068-7.963-7.68-12.24c-2.518-4.119-6.703-10.609-7.92-15.599c0.16,0,0.318,0,0.479,0
	c0.477,0.311,1.166,0.076,1.92,0.239c2.004,0.435,10.137,1.168,11.762,0c-0.08,0-0.16,0-0.24,0c0-0.079,0-0.159,0-0.239
	c-2.256,0.77-6.646,0.246-8.879-0.24c-0.881,0-1.76,0-2.643,0c-3.92-0.721-7.842-1.439-11.76-2.16
	c-1.479-0.445-6.455-2.537-7.92-1.68c-2.082,0.653-3.349,3.301-3.839,5.52c0.08,0,0.16,0,0.24,0c0-0.08,0-0.16,0-0.238
	c1.754-1.945,1.82-4.988,5.519-5.041c2.787,2.146,10.566,3.285,14.879,3.84c1.174,4.882,4.318,9.738,6.723,13.681
	c2.977,4.883,5.436,9.6,8.641,14.158c4.559,6.488,10.178,12.285,14.398,19.199c1.602,2.621,2.355,5.439,3.602,8.4
	c2.557,6.082,6.592,17.279,4.559,26.641c0,0.801,0,1.602,0,2.4c-0.938,4.021-1.629,8.203-3.119,11.76
	c-0.76,1.811-2.105,3.521-2.641,5.521c0.08,0,0.16,0,0.24,0c0-0.08,0-0.16,0-0.24c0.08,0,0.16,0,0.24,0
	c1.615-3.605,3.525-7.313,4.561-11.521c1.119-0.561,2.24-1.119,3.359-1.68c0,0.561,0,1.119,0,1.68
	c-1.605,2.676-1.781,9.918-4.563,11.039c-2.58,1.945-8.309,1.586-12.479,2.4c0-0.24,0-0.48,0-0.719
	c1.84-1.938,2.27-6.051,3.119-8.881c4.336-14.459-0.129-29.23-5.52-39.6c-1.566-3.014-3.072-7.014-5.76-8.881c0,0.08,0,0.16,0,0.24
	c2.438,1.949,3.781,5.758,5.279,8.641c4.264,8.199,10.02,22.387,6.721,34.799c-1.068,4.012-1.529,6.996-2.881,10.32
	c-0.766,1.877-0.273,3.992-2.879,4.08c0.174-1.092,0.676-1.613,0.959-2.641c-0.08,0-0.16,0-0.24,0c0,0.158,0,0.318,0,0.479
	c-0.521,0.549-0.863,1.447-1.199,2.16c-4.096-0.014-7.713,1.041-11.281,1.201c0-0.16,0-0.32,0-0.48
	c0.459-0.229,0.66-0.336,0.961-0.721c-0.08,0-0.16,0-0.24,0c-0.529,0.541-2.367,1.482-2.879,1.201
	c-0.664-0.57-1.043-2.098-2.16-2.881c0,0.08,0,0.16,0,0.24c0.586,0.889,0.83,2.879,0.959,3.84c-2.291,0.662-4.16,2.234-6,3.359
	c-1.289,0.789-2.746,0.889-4.08,1.68c-1.262,0.752-2.359,2.188-3.6,2.881c-1.844,1.031-3.541,1.535-5.52,2.4
	c-1.23,0.537-6.41,3.521-7.921,3.119c-4.619-1.23-11.41-6.209-13.92-9.6c-0.27-0.363-0.18-0.875-0.48-1.199
	c-9.734-10.576-14.543-27.992-14.639-48c-0.32-3.041-0.641-6.08-0.961-9.121c-0.223-0.963-0.865-2.678-0.48-4.08
	c0.217-0.787,0.939-1.836,1.201-2.639c0.916-2.814,1.021-5.895,1.68-8.883c0.609-2.762,0.17-10.818-0.479-13.438
	c-0.244-0.986-1.285-3.355-0.961-4.563c0.43-1.588,1.898-2.92,2.398-4.799c0.209,0.178,0.271,0.301,0.48,0.48c0-0.16,0-0.318,0-0.48
	c-0.459-0.895,1.324-3.73,2.4-4.08c1.314-0.76,3.205,0.996,4.561,0.24c-1.521-0.4-3.041-0.801-4.561-1.201
	c-0.373,0.455-1.092,0.514-1.439,0.961c-1.033,1.318-3.371,6.195-3.84,7.92c-0.16,0-0.32,0-0.48,0
	c-0.199-1.986-1.084-3.67-1.68-5.279c-1.617-4.355-2.885-8.324-4.801-12.242c0.16,0,0.32,0,0.479,0
	c1.652,2.41,4.508,3.402,7.201,4.801c5.131,2.667,10.799,5.828,17.521,6.72c-0.223,1.17-0.74,1.158-0.961,2.398
	c-4.184-0.387-10.867-0.314-12.721,2.4c-3.166,4.645,1.172,11.213,3.121,14.4c0.479,1.279,0.959,2.561,1.439,3.84
	c0-0.24,0-0.48,0-0.721c-0.189-0.254-0.357-0.885-0.48-1.199c0.16,0,0.32,0,0.48,0c0.727,0.971,1.936,1.402,3.6,1.439
	c0.955-0.758,2.391-0.963,3.359-1.68c1.703-1.262,3.707-5.064,5.521-5.762c0,0.08,0,0.16,0,0.24
	c-1.467,1.887-3.576,11.791-2.4,15.359c1.055-0.623,1.957-1.648,3.119-2.16c2.533-1.111,7.373-1.283,7.441-4.799
	c-1.008-1.619-1.613-10.387-1.92-12.961c0.078,0,0.158,0,0.238,0c0,0.08,0,0.16,0,0.24c1.4,1.76,1.188,4.754,1.92,7.201
	c1.174,3.916,2.266,8.293,3.359,12.238c0.297,1.059,0.924,6.146,0.723,6.479c0,0.08,0,0.16,0,0.24
	c-0.73-0.51-1.123-1.189-1.921-1.68c0,0.08,0,0.16,0,0.24c3.601,2.512,5.408,8.215,7.201,12.479c0.686,1.631,0.9,4.438,2.16,5.521
	c-1.695-4.504-3.314-9.26-4.561-13.92c-0.461-1.723,0.604-4.449-0.24-5.762c0.049,1.164,0.006,2.918-0.721,3.361
	c-0.205-1.982-1.148-3.422-1.68-5.041c-1.107-3.371-1.293-6.467-2.4-9.84c-1.152-3.5-2.465-7.896-3.121-11.762c0.16,0,0.32,0,0.48,0
	c0,0.08,0,0.16,0,0.24c2.027,1.98,5.876,9.576,8.4,10.08c0.748-0.656,1.951-0.703,2.879-1.201c2.959-1.582,5.207-2.822,9.602-3.359
	c0.209,0.287,0.195,0.271,0.479,0.48c-1.826-3.525-9.072-6.523-12.959-8.16c-1.375-0.578-2.996-0.582-4.08-1.438
	c3.418-0.352,6.816-0.553,9.359-1.682c0.693-0.309,2.404-1.18,2.639-0.961c1.57,1.807,2.105,4.654,3.361,6.723
	c3.08,5.061,6.51,9.928,9.84,14.639c1.58,2.236,3.049,5.412,5.279,6.961c-1.576-2.732-3.984-4.92-5.76-7.439
	c-2.939-4.174-5.213-8.543-7.92-12.961c-1.553-2.533-3.688-5.271-4.561-8.4c0.621-0.406,0.922-0.949,1.439-1.439
	c0.064-4.375-2.752-10.699-5.039-12.48c-0.84-0.653-1.875-0.965-2.641-1.68c-4.543-0.002-7.933,2.389-9.839,5.041
	c-0.848,1.179-0.748,3.201-2.4,3.601c-0.311-0.211-0.592-0.215-1.199-0.24c0.313-2.863,1.607-5.252,2.398-7.68
	c1.904-5.84,3.547-20.531,1.92-27.84c-0.842-3.783-0.744-9.914,1.92-11.28c1.734,1.665,3.636,2.157,5.041,4.801
	c0.367,0.688,0.164,1.198,0.48,1.92c1.34,3.057,3.33,6.143,5.039,8.879c0.637,1.021,0.857,2.078,1.68,2.881
	c-1.115,4.518-4.662,7.656-6.959,11.041c0.08,0,0.16,0,0.24,0c0-0.08,0-0.16,0-0.24c3.008-1.979,6.023-5.58,7.678-8.881
	c1.781,1.279,2.777,3.98,4.08,5.76c3.352,4.572,7.844,9.713,13.201,12.24c-1.172-1.646-3.658-3.094-5.281-4.32
	c-3.104-2.346-5.631-6.409-7.92-9.6c-1.117-1.559-3.09-2.957-3.359-5.279c2.064-2.146,3.598-6.275,4.803-9.121
	c0.611-1.447,0.865-4.063,2.158-4.799c1.291,2.299,3.176,4.289,4.561,6.479c2.715,4.293,5.383,9.242,7.439,13.92
	c1.469,3.34,2.734,6.797,4.08,10.08c0.67,1.641,0.646,3.754,1.682,5.041c0-0.24,0-0.48,0-0.722c-1.129-1.541-1.143-3.875-1.92-5.76
	c-1.4-3.375-2.813-6.892-4.32-10.319c-1.814-4.111-4.258-8.521-6.721-12.24c-1.32-1.994-3.615-4.027-4.32-6.479
	c1.041,0,2.08,0,3.121,0c0.938,0.846,2.359,1.395,3.119,2.398c2.27,3.012,3.674,6.668,5.279,10.32
	c2.35,5.338,5.131,10.963,7.439,16.561c1.52,4.479,3.041,8.961,4.561,13.441c0-0.32,0-0.641,0-0.961
	c-0.676-1.018-0.52-2.277-0.961-3.599c-1.064-3.209-2.01-6.663-3.357-9.842c-4.004-9.424-8.195-18.629-13.201-26.879
	c0.16,0,0.32,0,0.479,0c1.867,1.25,5.211,0.192,7.439,0.479c4.293,0.551,10.09,0.205,14.4,0c1.057,1.942,1.811,6.055,3.121,7.68
	c0-0.239,0-0.479,0-0.721c-0.801-2.319-1.602-4.642-2.4-6.959c0.16,0,0.32,0,0.48,0c0.771,0.631,1.838,0.851,2.639,1.438
	c3.592,2.644,6.67,6.267,9.361,9.84c0.842,1.119,2.281,1.992,3.119,3.121c1.693,2.28,2.627,5.104,4.32,7.439
	c2.25,3.104,6.361,5.445,7.92,9.119c1.627,3.84,2.031,8.876,3.119,12.96c0.541,2.023,0.346,4.705,1.439,6.24
	c-0.195-3.955-1.338-7.928-2.158-11.52c0.158,0,0.318,0,0.479,0c0.939,1.438,2.646,2.432,3.602,3.84
	c0.936,1.381,1.275,2.914,2.16,4.32c2.643,4.199,5.754,8.131,8.639,12.236c1.627,2.316,6.123,5.85,6.24,9.123
	c-0.908,1.223-1.039,3.1-1.68,4.559c-1.188,2.707-3.074,5.23-4.561,7.68c0.08,0,0.158,0,0.238,0c0-0.078,0-0.158,0-0.238
	c2.871-1.998,5.611-8.584,6.48-12.721c0.08,0,0.16,0,0.24,0c0,0.08,0,0.16,0,0.24c1.279,0.836,3.32,3.029,3.84,4.561
	c-1.605,2.109-2.168,6.047-3.6,8.398c-3.479,5.711-7.492,9.201-13.201,12.721C429,250.661,426.891,252.501,424.147,252.632z
	 M270.306,151.111c1.367,0.525,3.178,0.449,4.801,0.238c0.405,0.793,2.609,3.957,2.399,4.801c-0.156,0.625-1.17,1.088-1.44,1.68
	c-0.539,1.187-0.312,2.496-0.72,3.84c-0.63,2.076-1.497,4.478-2.16,6.48c-0.483,1.465-0.464,4.094-1.68,4.801
	c-0.374-2.807-1.277-5.977-1.92-8.881C268.601,159.623,269.849,154.801,270.306,151.111z M346.627,153.269
	c3.342,0.4,6.803,0.936,11.039,0.961c0.031,3.262-1.463,6.141-2.4,8.641c-0.496,1.32-0.479,3.004-1.68,3.601c0-0.08,0-0.16,0-0.24
	C351.844,164.376,347.09,156.125,346.627,153.269z M290.706,153.51c1.351-0.004,3.82,0.534,4.32,1.44c-0.4,0-0.801,0-1.199,0
	c-1.303,0.849-5.773,0.972-7.92,0.959c-0.201-0.449-0.332-0.639-0.48-1.199C286.843,154.652,289.657,154.242,290.706,153.51z
	 M286.386,156.39c3.757-0.029,6.872-0.123,10.08-0.961c1.023-0.268,2.816-1.291,4.561-0.721c1.102,0.363,2.725,2.012,3.119,3.121
	c-4.318,0.561-8.64,1.119-12.96,1.68c-0.69,0.217-2.352,1.82-2.399,1.68C287.815,160.166,286.635,157.98,286.386,156.39z
	 M310.146,164.551c5.219,0.266,10.41,1.198,16.32,1.198c3.377,0,6.756,0.039,8.16-1.92c1.377-1.838,2.416-6.18,3.359-8.399
	c0.16,0,0.32,0,0.479,0c0.168,4.267,0.721,8.562,0.721,13.44c0,1.439,0,2.879,0,4.318c-0.68,2.916-0.896,5.869-0.959,7.922
	c-0.609,0.367-1.275,0.853-1.682,1.439c0.08,0,0.16,0,0.24,0c0.334-0.359,0.779-0.693,1.199-0.961c0,0.48,0,0.961,0,1.439
	c-0.754,1.194-0.51,3.067-0.959,4.561c-0.842,2.799-1.705,5.74-2.881,8.16c-2.867,0.332-4.416,2.139-6.721,2.643
	c-1.191-0.793-2.813-0.695-4.318-1.201c-2.23-0.744-11.17-4.162-12.24-5.52c1.883-0.177,3.295-0.785,4.799-1.199
	c0-0.08,0-0.16,0-0.24c-1.52,0.341-4.266,1.726-6,1.199c-1.422-0.431-7.191-4.287-7.678-5.521c4.373-1.047,6.922-3.944,8.879-7.438
	c0.506-0.905,1.975-2.985,0.959-4.562c-0.236-0.768-0.746-1.371-1.438-1.68c-0.26-0.18-0.229-0.145-0.723-0.24c0,0.08,0,0.16,0,0.24
	c0.869,0.539,1.445,1.246,2.16,1.92c0.014,6.16-5.977,9.691-10.559,11.521c-0.887-2.935-2.736-3.334-0.24-6
	c0.768-0.818,0.471-1.164,2.16-1.199c0.854-0.26,1.893,1.586,3.359,0.72c-1.102-0.304-3.152-2.099-3.842-1.681
	c-0.938,0.703-2.529,3.328-3.6,3.84c0-0.08,0-0.159,0-0.239c-1.846-2.025-2.382-5.279-3.84-7.681c-1.566-2.582-2.87-5.371-4.32-8.16
	c-0.576-1.106-1.42-1.916-1.68-3.358c0.666-0.646,0.918-1.332,1.92-1.681c1.18-0.896,2.734-0.321,4.561-0.721
	c3.748-0.817,8.229-1.763,12-0.959c3.32,5.203,1.359,6.034,1.201,12.479c-0.16,0-0.32,0-0.48,0c-1.75-1.61-5.82-2.373-7.199-4.08
	c1.02-0.03,2.275-0.229,2.879-0.721c-3.473-0.043-5.936-0.209-8.64,0.48c-0.399,0.639-0.802,1.279-1.2,1.92c0.08,0,0.16,0,0.239,0
	c0.598-0.676,1.31-1.266,1.921-1.92c6.137-0.057,8.283,4.172,13.199,5.039c0-0.08,0-0.16,0-0.24
	C308.907,170.21,310.069,166.435,310.146,164.551z M394.147,164.07c0,0.16,0,0.32,0,0.48c0.08,0,0.16,0,0.24,0c0-0.16,0-0.32,0-0.48
	C394.307,164.07,394.227,164.07,394.147,164.07z M394.387,165.031c0,0.158,0,0.318,0,0.479c0.078,0,0.156,0,0.236,0
	c0-0.16,0-0.32,0-0.479C394.545,165.031,394.467,165.031,394.387,165.031z M394.625,165.75c0,0.16,0,0.32,0,0.48
	c0.08,0,0.16,0,0.24,0c0-0.16,0-0.32,0-0.48C394.786,165.75,394.706,165.75,394.625,165.75z M394.866,166.71c0,0.16,0,0.32,0,0.479
	c0.08,0,0.16,0,0.24,0c0-0.158,0-0.318,0-0.479C395.026,166.71,394.946,166.71,394.866,166.71z"/>
<path fill="none" stroke="#000000" stroke-miterlimit="10" d="M248.883,204.159c1.432-0.236,2.291-1.266,3.36-1.92
	c0,0.879,0,1.76,0,2.641c1.421,2.35-0.214,6.756,0.479,9.84c0.783,3.473,0.714,7.398,1.441,11.039
	c0.373,1.875-0.174,6.104,0.479,8.879c0.788,3.352-0.234,7.049,0.479,10.08c0.752,3.191-0.513,8.959,0.961,11.281
	c-0.561-10.24-1.121-20.482-1.681-30.721c0.16,0,0.319,0,0.479,0c0.834,1.074,9.457,4.658,11.281,3.6
	c-3.246-0.02-11.644-2.693-11.761-5.52c-0.603-0.828-0.754-3.973-0.239-4.32c0.889,1.244,3.129,1.986,4.799,2.4
	c-1.43-1.303-3.854-1.576-5.039-3.119c-1.442-1.916-1.201-12.193-1.201-15.602c1.611,0.236,2.658,1.244,4.08,1.682
	c3.406,1.039,6.885,1.033,9.361,2.879c2.887,2.15,4.434,7.195,7.439,9.359c-1.568-2.678-5.579-6.449-6.48-9.121
	c1.035,0.031,0.844,0.346,1.2-0.238c-2.368-0.033-4.312-1.789-6.96-2.398c0-0.32,0-0.641,0-0.961
	c-1.863-2.691,1.813-7.994,2.641-10.08c0.724-1.822,3.07-4.662,3.6-6.242c2.078-6.213,4.525-13.483,6.72-20.399
	c0.877-2.765,1.669-9.963,4.08-10.799c0.847,2.848,3.3,5.522,4.8,7.92c3.141,5.017,5.758,10.075,8.881,15.118
	c1.389,2.246,4.133,4.779,4.319,7.921c-2.181,2.827-2.831,7.422-4.319,10.801c-1.646,3.73-5.451,5.906-8.641,8.16
	c-0.441,0.313-1.55,2.086-1.68,2.158c-1.68,0-3.36,0-5.041,0c-0.689-0.477-4.025-0.588-4.559-0.238
	c3.805,0.193,9.655,1.705,14.159,0.721c3.675-0.805,7.421-0.545,11.28-1.441c1.645-0.381,3.546-0.955,5.279-1.199
	c0.107,0.48,0.689,3.195,0.961,3.6c0-0.641,0-1.279,0-1.92c-0.319-1.119-0.641-2.24-0.961-3.359
	c-2.129-1.238-5.146-2.389-7.439-3.359c-1.253-0.531-3.234-0.514-3.84-1.682c1.374-1.623,2.708-5.861,3.6-7.919
	c0.605-1.396,0.543-3.459,2.16-3.84c0.496,2.019,1.975,3.781,2.88,5.521c2.444,4.689,5.097,10.439,6,16.318
	c-0.903,0.982-1.288,2.855-2.641,3.359c-0.047-0.559-0.047-0.678-0.239-0.959c-0.4,5.199-0.801,10.4-1.199,15.6
	c-1.688,0.174-3.33,0.957-4.801,1.439c-2.494,0.816-5.273,0.971-7.68,1.68c-1.531,0.451-4.172,0.111-4.561,0.961
	c0.16,0,0.32,0,0.48,0c1.342-0.801,3.628-0.301,5.279-0.721c3.84-0.975,7.771-2.17,11.281-3.119c0,0.48,0,0.959,0,1.439
	c-0.674,1.104,0.08,3.309-0.24,4.801c-0.354,1.646-0.67,5.176-0.24,7.199c0.091,0.428,0.435,1.6,0.24,2.4
	c-0.311,1.277-0.899,2.688-1.201,4.08c-0.158,0-0.318,0-0.479,0c-0.848-1.285-2.139-1.961-3.36-2.881
	c-1.599-1.205-2.611-3.191-4.319-4.32c0,0.08,0,0.16,0,0.24c2.003,1.357,3.55,3.826,5.28,5.521c0.707,0.689,2.043,1.15,2.641,1.92
	c1.208,1.551,0.734,4.473,1.92,6c-0.065-2.432-1.735-4.623-1.2-6.961c0.383-1.67,1.127-3.979,1.2-5.521
	c0.138-2.854-0.946-7.117-0.239-10.318c0.971-4.402,0.769-8.113,0.959-12.24c0.08,0,0.16,0,0.24,0c0,0.16,0,0.318,0,0.479
	c0.764,1.16,0.541,2.807,0.96,4.32c0.802,2.895,3.438,9.727,2.399,12.959c0.24,0,0.48,0,0.721,0
	c-0.014,2.953,0.599,6.219,1.199,8.881c0.08,3.119,0.16,6.24,0.24,9.359c0.586,2.604,0.289,5.648,0.959,8.4
	c1.479,6.055,2.074,12.189,4.32,17.52c1.355,3.219,2.922,6.775,4.801,9.6c1.123,1.689,3.123,3.322,3.84,5.281
	c-0.08,0-0.16,0-0.239,0c-1.148-0.717-2.903-0.525-4.32-0.961c-3.115-0.955-10.79-3.131-12.479-5.279
	c-1.301-1.789-0.365-6.229-0.961-8.881c-0.737-3.299-0.951-7.246-1.68-10.559c-0.31-1.408,0-3.451-0.24-4.561
	c-0.531-2.459,0.619-7.375-0.479-9.121c-0.084,7.959,0.159,16.055,1.681,22.561c0.789,3.381,0.258,7.742,0.719,10.561
	c1.692,10.332,3.833,20.879,1.682,31.439c-3.17,0.877-6.572,2.455-9.84,3.361c-2.326,0.645-4.25-0.039-6.24,0.719
	c-3.437,1.311-6.983,3.627-10.8,4.801c-2.4,0.32-4.801,0.639-7.2,0.959c-2.351,0.801-4.78,1.846-7.92,1.92
	c-1.04-1.76-2.08-3.52-3.12-5.279c-0.908-2.08-1.264-3.924-2.16-6c-0.529-1.227-1.699-3.139-1.92-4.561
	c-0.181-1.164,0.924-3.318,1.2-4.08c0.31-0.848-0.79-2.443-0.96-3.119c0-1.92,0-3.84,0-5.76c-0.16,0-0.32,0-0.48,0
	c0,1.119,0,2.24,0,3.359c0.32,0.514,0.909,4.617,0.961,5.279c-0.08,0-0.16,0-0.24,0c-1.344-1.451-3.141-2.732-4.32-4.318
	c-0.794-1.068-1.223-2.443-2.16-3.361c0.342-2.125,0.508-5.5,1.68-6.959c0,0.08,0,0.16,0,0.238c1.414,1.512,2.481,4.512,4.32,4.801
	c0.578-0.75,0.749-2.295,0.96-3.359c0.08,0,0.16,0,0.24,0c0,0.08,0,0.16,0,0.24c2.337,3.162,2.676,8.857,5.76,11.279
	c0,0.08,0,0.16,0,0.24c0.08,0,0.16,0,0.24,0c0-0.16,0-0.32,0-0.48c-2.545-2.121-6.599-13.395-7.2-17.039
	c0.08-1.521,0.16-3.041,0.24-4.561c0.044-6.375,0.811-14.066-0.48-19.68c-0.771-3.352,0.479-11.152-0.959-13.441
	c-0.004,3.994-0.123,8.809,0.719,12.48c0.34,1.48-0.033,3.611,0.24,4.801c0,2.959,0,5.92,0,8.879
	c0.273,3.027,0.678,8.809-0.24,10.801c0,0.08,0,0.16,0,0.24c-0.363-0.129-0.405-0.162-0.959-0.24c0,0.08,0,0.16,0,0.24
	c1.051,0.748,0.471,1.232,0.959,2.641c0.135,0.385,0.805,0.818,0.961,1.199c0.623,1.521-0.213,3.74-0.721,5.041
	c-3.48-1.705-4.689-6.156-3.119-10.561c0.424,0.23,0.402,0.301,0.959,0.479c0-0.078,0-0.158,0-0.238
	c-2.107-1.752,1.053-5.717-0.24-7.92c0.008,1.463-0.225,2.635-0.479,3.84c-0.079,0-0.159,0-0.239,0
	c-0.135-1.168-0.725-1.979-0.961-2.881c0.08-1.439,0.16-2.879,0.24-4.32c-1.145-4.842-0.521-10.918-1.68-15.6
	c-0.438-1.771,0.146-5.789-1.439-6.721c0,0.08,0,0.16,0,0.24c1.889,2.73,0.832,9.518,1.68,13.441c0.59,2.73,0.713,6.334,0.72,9.357
	c0.002,1.01-0.329,2.48-0.24,3.119c0.253,1.83,2.198,3.377,1.681,5.76c-0.724,3.328-1.209,6.699-2.16,10.08
	c-0.418,1.484-1.099,2.734-1.201,4.563c0.742,0.59,0.884,1.369,1.441,2.16c1.484,2.109,3.571,4.584,5.76,6
	c-2.018,5.047,1.67,9.438,3.119,13.199c0.922,2.391,1.26,4.617,2.881,6.238c-0.151,0.422-0.047,0.234-0.24,0.48
	c-1.676,1.068-5.704,0.742-8.16,0.721c-0.27,0.502-0.344,0.439-0.48,1.199c1.26,1.318,2,2.578,4.08,3.121
	c-1.332-1.207-3.213-1.414-3.6-3.602c0.492-0.17,1.122-0.236,1.92-0.238c1.669,0.91,9.164-1.229,10.561-1.682
	c4.328-1.404,9.346-1.432,13.68-2.879c4.324-1.443,7.438-3.744,12.24-4.801c0,0.318,0,0.641,0,0.961
	c-1.199,0.598-1.854,1.676-2.881,2.398c-2.371,1.672-4.965,2.76-7.439,4.318c-1.492,0.941-3.146,2.699-4.801,3.361
	c-1.879,0.75-4.073,0.168-6.239,0.719c-1.796,0.459-4.374,0.984-6.24,1.441c-1.573,0.383-4.481-0.336-5.76,0.479
	c2.394,0.117,4.405-0.125,6.72-0.238c0.518,0.838,3.399,4,3.12,4.318c-1.606,2.523-6.478,7.311-8.88,9.121
	c-0.954,0.719-1.965,1.17-2.641,2.16c0.08,0,0.16,0,0.24,0c0.709-0.746,1.955-1.697,3.12-1.92c0.202,0.572,0.097,0.395,0.479,0.719
	c-0.051-0.803-0.516-0.576,0.24-0.959c0.946,0.801,3.006,0.775,3.601,1.92c-0.08,0-0.16,0-0.24,0
	c-1.47,1.451-6.519,2.611-8.399,1.439c-0.293-0.426-0.004-0.42-0.24-0.721c-0.245,0.193-0.066,0.086-0.48,0.24c0,0.08,0,0.16,0,0.24
	c0.629,0.598,0.457,0.838,1.68,0.961c2.98,1.971,6.582-1.813,9.121-2.16c1.264,0.924,4.397,0.898,4.799,2.641
	c-1.644,1.271-2.789,3.369-4.319,4.799c0.151,0.422,0.046,0.232,0.239,0.48c0.562,0.639,1.892,0.529,3.121,0.479
	c0.185-0.164,0.535-0.314,0.72-0.479c-1.265,0.133-1.871,0.135-2.88,0c-0.16-0.24-0.32-0.48-0.48-0.721
	c1.379-0.939,2.129-3.146,3.84-3.602c0.08,0.24,0.16,0.48,0.24,0.723c0.08,0,0.16,0,0.24,0c0.238,0.24-0.236,0.234-0.24,0.238
	c-0.531,1.15-1.273,1.906-1.92,2.879c0.08,0,0.16,0,0.24,0c0-0.08,0-0.158,0-0.238c1.256-0.658,1.27-1.686,2.16-2.641
	c-0.238-0.816-0.705-1.125-0.48-1.682c0.352-0.605,0.105-0.371,0.96-0.479c0.914,0.811,2.692,1.154,3.841,1.68
	c-0.232,0.424-0.303,0.402-0.48,0.959c0.08,0,0.16,0,0.24,0c0.56-0.818,0.883-0.695,1.92-0.479c0,0.158,0,0.318,0,0.479
	c-0.389,0.402-0.553,0.793-0.721,1.441c0.08,0,0.16,0,0.24,0c0-0.08,0-0.16,0-0.24c0.415-0.402,0.688-0.893,0.96-1.441
	c0.448,0.201,0.64,0.332,1.2,0.48c-0.077,0.682-0.253,0.498,0,0.961c0.294-0.744,0.09-0.543,0.96-0.721
	c0.372,0.344,0.931,0.508,1.44,0.721c-0.08,0.16-0.16,0.32-0.24,0.479c-2.313,0.695-5.547,0.111-7.2,1.441
	c0.479-0.08,0.96-0.16,1.44-0.24c0.248,1.264,1.189,1.057,2.64,0.959c3.685-2.813,8.634-0.225,11.76,1.441
	c-1.097-1.754-3.087-2.48-5.04-3.361c-0.427-0.191-2.74-0.822-2.16-0.959c1.043-1.564,2.584-2.943,3.6-4.561
	c0.898-1.43,1.182-3.156,2.16-4.561c0.813-1.166,2.896-1.574,4.08-2.398c3.666-2.551,6.824-5.945,11.521-7.441
	c2.682-0.854,8.133-0.479,11.279-0.479c1.379,0,3.869,0.334,4.801-0.24c-5.04,0-10.081,0-15.12,0
	c-5.373,1.426-8.984,5.059-12.96,7.92c-1.05,0.756-3.069,1.385-3.84,2.4c-0.798,1.051-0.979,2.484-1.681,3.6
	c-1.293,2.063-3.258,3.777-4.56,5.76c-0.72-0.24-1.44-0.48-2.16-0.721c0-0.559,0-1.119,0-1.68c-0.493-0.293-0.698-0.396-0.96-0.959
	c1.803-2.037,1.664-5.492,3.12-7.92c1.69-2.822,4.621-4.773,7.2-6.721c3.025-2.285,4.331-6.146,7.92-7.92c0-0.08,0-0.16,0-0.24
	c-0.32,0-0.641,0-0.96,0c-2.962,2.469-4.869,6.104-7.92,8.4c-1.828,1.375-4.499,2.898-5.761,4.799
	c-1.699,2.563-3.776,10.061-6.959,10.561c-0.912-0.705-2.609-1.156-3.84-1.439c0-0.24,0-0.48,0-0.721
	c2.614-2.08,3.594-6.328,5.52-9.119c1.107-1.607,2.938-2.229,4.561-3.361c2.592-1.809,5.34-4.602,7.439-6.959
	c1.768-1.986,3.291-5.543,6.24-6.24c0-0.08,0-0.16,0-0.24c-0.4,0-0.801,0-1.2,0c-5.408,5.711-10.128,11.605-18.96,13.92
	c0.207,0.363,0.684,0.18,0.24,0.48c-2.612,3.924-7.08,6.283-10.32,9.6c-1.23-0.26-4.278-1.121-4.801-2.16
	c2.293-1.354,6.701-5.787,7.92-8.158c0.24,0,0.48,0,0.721,0c0-0.32,0-0.641,0-0.959c1.193-0.906,1.885-2.48,3.12-3.361
	c1.517-1.082,3.409-1.416,5.04-2.398c3.535-2.135,6.977-4.482,10.561-6.721c1.82-1.137,4.381-4.402,6.239-4.561
	c1.409-1.223,6.399-1.592,8.399-2.398c3.933-1.594,8.488-3.621,12.96-4.561c1.966-0.414,7.714,2.281,9.121,2.879
	c5.332,2.266,8.592,5.66,13.198,8.398c3.269,1.943,7.495,2.854,10.802,4.563c0-0.16,0-0.32,0-0.48
	c-2.316-0.676-4.791-2.182-6.961-3.119c-1.199-0.4-2.399-0.801-3.601-1.201c-3.385-2.027-6.456-5.084-9.84-7.199
	c-1.854-1.158-4.669-1.416-6.24-2.881c0.16,0,0.32,0,0.48,0c1.957-0.703,7.826,1.326,9.6,0.24c-2.098-0.016-4.381-0.283-6.24-0.719
	c-2.08,0-4.159,0-6.239,0c-2.714-0.646-5.765-1.533-8.64-0.961c0,0.08,0,0.16,0,0.24c0.319,0,0.64,0,0.959,0
	c0.472-0.26,1.599-0.041,2.642,0c0,0.16,0,0.32,0,0.479c-3.547,0.055-6.379,1.367-9.36,2.641c0-0.48,0-0.959,0-1.439
	c1.395-2.186,0.433-7.586,0.96-9.6c3.135,1.139,7.079,1.42,11.28,1.438c0,0.16,0,0.32,0,0.48c-0.16,0-0.32,0-0.479,0
	c-2.842,2.58-8.653,3.332-9.36,7.92c0.08,0,0.16,0,0.239,0c0.537-0.916,1.771-0.992,2.642-1.439c-0.385-0.135-0.577-0.191-1.2-0.238
	c-0.224,0.219-0.421,0.316-0.72,0.479c0-0.16,0-0.32,0-0.479c0.08,0,0.16,0,0.239,0c0.6-1.576,2.755-2.238,4.08-3.121
	c1.552-1.031,3.498-2.664,5.279-3.359c1.6-0.16,3.2-0.32,4.8-0.48c3.145-0.768,6.524-1.695,9.602-2.4
	c2.504-0.572,4.976,1.699,6.479,0.961c-1.284-0.125-3.671-0.717-4.56-1.438c0.08,0,0.16,0,0.239,0c3.421-2.717,8.101-1.635,11.761,0
	c3.393,1.512,6.174,4.258,9.119,6.238c4.279,2.877,9.588,5.455,14.641,7.439c1.055,0.414,3.645-0.502,4.559-0.721
	c4.16-0.4,8.32-0.799,12.48-1.199c0,0.08,0,0.16,0,0.24c-0.08,0-0.16,0-0.24,0c-2.486,2.008-8.02,3.654-12.719,2.639
	c-1.281,0-2.561,0-3.842,0c-0.576-0.234-0.561-0.744-1.439-0.959c0,0.08,0,0.16,0,0.24c0.365,0.244,0.473,0.359,0.721,0.719
	c-0.695-0.014-1.313-0.01-1.68,0.24c2.025-0.016,3.043,0.576,4.561,0.961c0-0.08,0-0.16,0-0.24c-0.572-0.203-0.396-0.096-0.721-0.48
	c2.48,0,4.959,0,7.439,0c0,0.16,0,0.32,0,0.48c-0.08,0-0.16,0-0.24,0c-0.945,0.895-2.258,1.432-4.08,1.439
	c-0.482-0.623-1.283-0.979-2.16-1.199c0,0.08,0,0.16,0,0.24c0.16,0,0.32,0,0.48,0c0.301,0.389,0.504,0.48,0.961,0.719
	c0,0.08,0,0.16,0,0.24c-1.441,0-2.881,0-4.32,0c-1.174-0.707-3.994-0.26-5.281-0.959c0.008,0.836-0.027,0.795-1.438,0.719
	c-0.244-0.193-0.064-0.084-0.48-0.24c0,0.16,0,0.32,0,0.48c2.68-0.061,3.648,0.611,5.281,1.201c0,0.08,0,0.158,0,0.238
	c-2.24,0-4.48,0-6.721,0c-0.313-0.211-0.592-0.215-1.199-0.238c0,0.158,0,0.318,0,0.479c1.6,0,3.199,0,4.799,0
	c0.756,0.496,2.896,0.271,4.08,0.24c0.295,0.547,0.393,0.541,0.48,1.439c-4.16,1.92-8.32,3.842-12.48,5.762
	c-1.699,0.922-3.191,2.289-5.279,2.879c0,0.08,0,0.16,0,0.24c0.24,0,0.48,0,0.719,0c2.031-1.617,4.834-2.369,7.201-3.6
	c3.332-1.732,6.654-3.205,10.32-4.801c0.893-0.391,1.961-1.377,2.879-1.682c9.119,0.32,18.242,0.643,27.361,0.961
	c0,0.16,0,0.318,0,0.48c-0.16,0-0.32,0-0.48,0c-1.525,1.102-3.555,1.26-5.52,1.92c-4.713,1.584-9.652,3.086-14.4,5.041
	c-13.756,5.66-29.523,8.633-44.16,13.199c-5.571,1.736-11.401,2.404-16.8,4.08c-8.004,2.48-15.273,3.086-21.841,6.961
	c-2.525,1.488-5.725,2.834-6.24,6.238c0.08,0,0.16,0,0.24,0c0.715-3.826,4.684-5.309,7.92-6.721
	c3.799-1.658,8.278-3.205,12.48-4.561c1.92-0.4,3.84-0.799,5.76-1.199c5.813-1.76,12.039-2.506,18-4.32
	c12.328-3.75,24.963-6.488,37.201-10.561c4.57-1.52,9.541-3.25,13.92-5.039c2.416-0.986,4.785-1.172,7.199-2.16
	c2.949-1.209,6.02-3.008,9.84-3.119c0.674,0.645,1.873,1.176,2.881,1.439c0,0.16,0,0.32,0,0.48c-3.43,0.373-7.332,2.373-10.32,3.6
	c-6.717,2.756-13.943,4.482-20.641,6.959c-3.344,1.238-6.873,2.057-10.08,3.121c-1,0.332-1.713,0.164-2.4,0.719
	c0.24,0,0.48,0,0.721,0c2.178-1.555,6.844-1.869,9.6-2.879c7.496-2.75,15.559-4.938,22.801-7.92c2.842-1.17,8.619-2.014,10.801-3.6
	c0.08,0,0.158,0,0.238,0c0-0.08,0-0.16,0-0.24c-1.264-0.791-3.025-1.979-4.559-2.4c-6.32-0.16-12.643-0.32-18.961-0.48
	c-2.518-0.379-6.875-0.65-9.119-0.238c0-0.16,0-0.32,0-0.48c0.777-0.201,1.164-0.758,1.68-0.959c1.521,0.08,3.039,0.16,4.563,0.24
	c4.105,0.053,8.752-0.344,12.479,0.479c4.4,0.08,8.801,0.158,13.201,0.238c1.273,0.184,7.797,0.773,8.879,0.48
	c2.863-0.773,6.254-2.174,9.121-3.119c9.631-3.178,19.395-5.527,28.799-8.641c13.125-4.346,26.238-7.162,39.359-11.52
	c8.375-2.781,17.191-5.816,25.92-7.92c0-0.08,0-0.16,0-0.24c-1.979-0.543-3.387-2.264-5.279-2.641
	c-4.799,0.479-9.602,0.961-14.4,1.438c-9.838,0.801-19.68,1.604-29.52,2.4c-4.059,0.635-9.139,0.559-13.199,1.439
	c-1.369,0.299-4.379,0.545-5.281,0c0.16,0,0.32,0,0.48,0c1.229-2.52,4.813-2.988,5.76-6.479c-0.08,0-0.16,0-0.24,0
	c0,0.16,0,0.318,0,0.479c-0.477,0.48-0.547,1.113-0.959,1.682c-1.348,1.85-5.623,4.514-7.68,5.76c-1.24,0.75-2.596,0.631-4.08,1.199
	c-3.846,1.477-8.143,3.209-12,4.801c-1.902,0.785-3.607,0.893-5.52,1.68c-10.354,4.26-21.143,8.434-32.641,11.279
	c-5.682,0.561-11.359,1.121-17.041,1.682c-1.139,0.262-5.281,1.346-6.48,0.959c-6.662-2.135-12.252-6.305-17.52-9.84
	c-2.361-1.586-5.016-3.188-7.68-4.32c-1.207-0.514-3.428-0.631-4.078-1.68c3.369-0.697,6.428-3.018,9.117-4.561
	c0.643-0.16,1.279-0.32,1.92-0.479c3.385-1.947,6.945-4.197,10.32-6.24c1.131-0.688,2.508-0.551,3.84-0.961
	c6.707-2.064,15.666-1.191,22.799-3.119c6.061-1.639,11.402-3.512,16.08-6.48c2.17-1.377,3.936-3.668,6-5.041
	c1.344-0.889,4.41-1.063,6-1.439c1.441-0.342,3.617,0.322,4.32-0.721c-0.561,0-1.119,0-1.68,0c-2.08,0.32-4.16,0.643-6.24,0.961
	c0-0.16,0-0.318,0-0.479c1.953-1.73,4.932-7.307,6.24-9.84c0.537-1.041,0.744-3.451,1.68-4.08c2.723-1.832,8.793,1.563,10.563,0.721
	c-0.996-0.09-5.91-1.379-6.24-1.92c0.08,0,0.16,0,0.24,0c1.629-1.576,5.215-0.57,7.197-0.721c0-0.08,0-0.16,0-0.24
	c-1.887-0.049-3.348-0.645-5.039-0.719c-1.371-0.064-2.043,1.559-2.881,1.92c-0.398-0.08-0.799-0.16-1.199-0.24
	c-0.609,0.143-1.701,0.604-2.641,0.719c0.355-2.98,0.938-5.861,0.961-9.6c10.045-2.311,21.584-14.568,23.76-24.959
	c0.08,0,0.16,0,0.24,0c0,0.08,0,0.16,0,0.238c1.09,0.73,1.729,1.967,2.639,2.881c2.514,2.516,5.094,5.006,7.682,7.438
	c-0.004,6.285-5.105,14.369-8.641,17.041c-1.352,1.021-3.041,2.041-4.078,3.359c0.078,0,0.158,0,0.238,0
	c0.813-0.832,1.932-1.213,2.879-1.92c1.445-1.074,2.244-3.18,4.08-3.84c1.027,1.662,4.953,6.047,6.48,7.199
	c1.334,1.01,3.035,1.861,3.6,3.602c1.266,3.891-0.406,8.648-1.199,11.52c-1.277,4.631-1.646,10.166-2.641,14.641
	c0.08,0,0.16,0,0.24,0c0-0.158,0-0.318,0-0.479c1.531-1.994,1.018-5.252,1.68-8.16c0.838-3.676,4.01-14.936,1.92-18.48
	c-0.617-1.045-1.674-1.668-2.641-2.4c-1.941-1.467-3.324-3.797-5.039-5.52c-0.838-0.842-1.955-1.406-2.4-2.641
	c2.994-2.33,6.334-9.697,5.762-14.879c-4.594-2.973-8.729-7.668-12-12c-0.721-0.641-1.439-1.281-2.16-1.92
	c-2.361-3.125-5.197-5.945-7.439-9.119c-2.816-3.992-5.814-7.9-8.4-12c-0.973-1.545-1.359-3.266-2.398-4.801
	c-1.031-1.521-3.656-2.928-4.561-4.32c-1.344-2.074-1.033-6.037-2.4-8.162c-0.4-0.32-0.801-0.64-1.199-0.959
	c-1.143-1.531-2.223-2.813-3.359-4.32c-0.975-1.289-2.789-2.161-3.602-3.601c-1-1.776-1.355-3.396-2.398-5.04
	c-1.156-1.822-3.059-3.125-4.32-4.8c-1.934-2.565-3.672-4.792-6.238-6.72c-1.857-1.395-3.217-3.904-5.762-4.561
	c-0.973-0.25-5.262,0.27-6.238,0.479c-2.801-0.08-5.602-0.16-8.4-0.24c0.678-8.092-1.615-15.271-4.801-20.399
	c-1.697-2.734-4.949-5.024-5.039-9.119c1.035-1.605,0.143-6.23,0.479-8.641c0.865-6.172-0.334-14.853-1.68-20.16
	c-0.938-3.701-1.021-6.91-2.16-10.32c-4.67-13.986-11.113-25.313-18.959-36c-3.35-4.563-7.524-8.981-11.521-12.959
	c-1.579-1.572-4.725-3.073-5.52-5.28c0.08,0,0.16,0,0.24,0c2.452,1.957,5.59,3.001,8.158,4.8
	c6.214,4.352,15.528,12.557,18.96,19.439c0.08,0,0.16,0,0.24,0c0-0.159,0-0.319,0-0.479c-1.594-1.593-2.383-4.038-3.6-6
	c-1.588-2.56-3.477-5.021-5.279-7.44c-5.809-7.776-15.037-14.036-23.522-19.198c-2.666-1.623-5.634-2.331-8.64-3.601
	c-12.085-5.104-34.096-9.422-49.68-5.521c-1.68,0-3.36,0-5.041,0c-3.748,0.851-7.758,1.009-11.039,2.399
	c-3.17,1.344-5.33,3.551-7.92,5.279c-1.231,0.822-2.617,1.09-3.84,1.922c-0.681,0.461-1.25,1.438-1.92,1.92
	c-6.064,4.365-11.863,9.424-16.32,15.358c-3.852,5.129-8.102,10.659-10.801,16.8c-3.469,7.896-5.877,16.385-8.64,24.961
	c-2.083,6.467-2.008,13.625-3.6,20.641c-0.08,3.119-0.16,6.24-0.24,9.359c-1.364,6.434,2.083,20.813,5.28,23.279
	c-1.651-3.438-3.293-6.708-4.32-10.8c-0.814-3.242-0.479-7.233-0.48-11.041c0-7.959,0.473-15.562,2.16-22.079
	c1.746-6.74,2.519-12.792,4.561-18.96c2.67-8.063,5.852-16.327,10.08-23.04c2.6-4.128,5.955-7.878,8.88-11.762
	c0.64-0.56,1.28-1.118,1.92-1.68c2.603-3.442,6.124-7.051,9.601-9.6c3.471-2.545,7.104-4.885,11.52-6.48
	c1.639-0.593,6.518-0.716,7.68-1.438c-3.977-0.071-6.283,0.978-9.359,1.438c0-0.08,0-0.16,0-0.24c0.08,0,0.16,0,0.24,0
	c2.566-3.528,13.092-5.286,18.719-6c0,0.16,0,0.32,0,0.48c-0.16,0-0.319,0-0.479,0c-2.062,1.533-4.585,1.668-6,3.84
	c0.08,0,0.16,0,0.24,0c1.396-1.805,4.108-2.256,6.479-3.119c6.055-2.207,15.924-3.396,23.76-1.681c1.601,0.08,3.201,0.16,4.801,0.24
	c2.959,0.479,5.92,0.96,8.88,1.44c8.781,2.438,17.451,4.609,24.48,8.879c3.897,2.369,7.668,4.983,11.278,7.681
	c1.042,0.776,1.853,2.103,2.881,2.88c3.906,2.954,10.477,9.742,12.721,14.16c-0.16,0-0.32,0-0.48,0
	c-1.014-1.662-2.506-2.747-3.84-4.08c-5.056-5.055-10.446-8.609-16.8-12.48c-2.74-1.668-5.633-3.732-9.12-4.56
	c0,0.08,0,0.16,0,0.239c0.079,0,0.159,0,0.239,0c1,0.947,2.401,1.136,3.601,1.921c2.151,1.409,3.746,3.757,5.76,5.28
	c2.113,1.597,4.654,3.664,6.24,5.76c2.399,3.172,5.34,5.938,7.682,9.119c3.83,5.213,7.389,10.722,10.799,16.32
	c4.453,7.313,6.629,15.623,9.359,24.721c2.027,6.754,2.879,14.389,2.881,23.279c-0.08,3.278-0.16,6.561-0.24,9.84
	c-1.107,4.875-1.389,10.199-2.641,14.641c-0.857,3.043-0.953,5.738-1.92,8.641c-1.617,4.856-3.836,9.553-5.76,13.92
	c-0.984,2.232-3.104,7.711-5.039,8.639c0-0.078,0-0.158,0-0.238c2.557-2.805,3.242-7.781,4.559-11.762
	c2.354-7.113,4.078-15.192,4.08-24.719c0.002-3.061,0.357-6.961-0.24-9.601c-0.678-3-0.029-5.582-0.719-8.399
	c-1.26-5.146-1.988-10.272-3.602-15.121c-1.039-2.719-2.08-5.438-3.117-8.159c-0.082,0-0.162,0-0.242,0c0,0.159,0,0.319,0,0.479
	c1.838,2.023,1.967,6.266,2.881,9.12c0.721,2.257,1.594,4.996,2.16,7.44c0.83,3.586-0.674,8.011-1.441,10.56
	c-0.697,2.326-0.805,4.345-1.68,6.479c-2.182,5.334-4.711,10.49-7.199,15.361c-0.16,0-0.32,0-0.479,0c0-0.08,0-0.16,0-0.24
	c2.121-2.646,1.988-7.194,2.879-11.041c3.707-15.994-2.652-30.549-8.16-39.84c0.803-0.24,1.602-0.479,2.4-0.721
	c0-0.08,0-0.158,0-0.238c-1.041-0.08-2.08-0.16-3.12-0.24c-2.009-3.219-4.696-5.885-6.96-8.881c-1.141-1.511-3.004-2.472-4.08-4.08
	c1.201-0.778,4.012-3.391,4.8-4.561c-0.08,0-0.159,0-0.238,0c-0.822,0.855-4.175,3.854-5.281,4.08
	c-0.957-1.461-2.688-2.551-4.08-3.602c-3.373-2.541-6.424-5.859-9.84-8.398c-1.168-0.87-3.141-2.104-3.84-3.359
	c-0.24-1.199-0.479-2.399-0.721-3.601c-1.277-3.985-4.072-13.729-6.72-15.84c0,0.08,0,0.159,0,0.239
	c2.064,2.686,2.822,6.688,4.08,10.08c1.679,4.529,2.561,9.908,3.84,15.119c0.16,1.92,0.32,3.84,0.48,5.76
	c0.596,2.711,1.063,8.173,0.479,10.802c-0.813,3.649,0.327,7.159-0.479,10.562c-1.14,4.795-2.553,9.223-3.602,13.68
	c-0.16,0-0.318,0-0.479,0c0-0.08,0-0.16,0-0.24c0.785-1.193,0.123-3.126,0.479-4.801c1.096-5.123-0.306-13.373-1.439-17.521
	c-1.108-4.054-1.394-7.667-2.88-11.278c-3.465-8.414-7.331-16.295-12.24-23.281c-1.174-1.67-2.865-3.182-4.08-4.799
	c-2.346-3.125-5.127-6.976-8.399-9.121c0,0.08,0,0.16,0,0.24c0.08,0,0.16,0,0.24,0c1.937,2.946,5.098,5.109,7.2,7.92
	c3.14,4.195,5.793,8.369,8.64,12.961c3.224,5.197,5.81,9.069,2.64,16.799c-1.813,4.421-3.888,8.709-6.24,12.48
	c-1.942,3.117-3.779,5.985-5.76,8.881c-0.893,1.303-1.291,3.217-3.359,3.358c-1.534-0.951-3.875-0.666-5.76-1.2
	c-2.354-0.667-4.65-1.826-6.961-2.398c-1.564-4.178-2.684-6.154-7.199-7.44c-1.688-0.479-4.879-0.415-6,0.479
	c-0.965,0.771-3.789,4.488-4.08,4.561c-0.156-0.207-0.321-0.755-0.48-0.96c0.143,2.671,0.45,6.028,0.96,8.16
	c-1.302,0.058-1.827,0.424-2.159,1.44c-0.211,0.311-0.216,0.592-0.24,1.199c0.609,0.744,0.635,1.317,1.68,1.68
	c0.785,0.549,1.783,0.058,2.4-0.239c0,0.159,0,0.319,0,0.479c1.197,1.784,1.195,4.543,1.92,6.721c1.355,4.08,2.67,8.613,4.32,12.479
	c-0.16,0-0.32,0-0.48,0c-1.323-1.09-6.367-2.895-8.16-1.68c-3.139,1.107-3.814,8.24-2.4,11.76c1.744,4.335,5.09,6.141,8.641,8.641
	c1.564,1.104,3.012,2.707,4.56,3.84c1.249,0.916,5.356,2.722,5.761,4.08c-0.736,1.058-0.377,2.554-0.721,4.08
	c-1.48,6.584,1,13.287,2.16,18c0.477,1.937-1.744,5.854-2.16,7.68c-0.08,0-0.16,0-0.24,0c0-0.079,0-0.159,0-0.239
	c-3.215-2.231-5.338-6.703-7.439-10.08c-5.114-8.217-8.969-17.133-11.52-28.08c0-1.92,0-3.84,0-5.76
	c0-5.306,0.215-10.89,0.239-15.841c0.011-2.022,1.153-5.7,0.24-7.199c-0.32,3.359-0.64,6.721-0.96,10.08
	c-0.422,1.943,0.115,4.595-0.24,6.24c-0.771,3.558,0.227,7.99,0.24,11.279c0.052,11.771,1.535,23.152,5.04,31.68
	c1.788,4.354,3.389,9.023,7.2,11.281c-1.229-1.914-3.098-3.523-4.32-5.521c-3.994-6.521-6.861-20.908-6.96-31.2
	c0.079,0,0.159,0,0.239,0c0,0.16,0,0.32,0,0.479c0.881,2.721,1.761,5.439,2.641,8.16c2.409,5.795,5.188,11.476,8.4,16.561
	c1.271,2.012,6.814,7.639,6.959,9.602c-0.719,1.76-1.439,3.521-2.16,5.278c-1.204,1.767-4.475,2.192-5.039,4.562
	c0.469,0.363,0.533,0.519,0.72,1.199c-2.918,1.041-6.747,7.01-10.08,7.441c-1.28-0.48-2.56-0.961-3.84-1.441
	c-1.36-0.834-2.759-2.115-4.08-3.119c-5.553-4.223-9.53-16.773-11.28-25.203c0.16,0,0.32,0,0.48,0c0.66,2.117,2.427,3.854,3.6,5.521
	c3.354,4.771,10.34,14.278,16.32,15.839c-2.714-2.837-6.034-4.943-8.4-8.16c-10.479-14.248-15.046-30.34-15.119-55.201
	c0.16,0,0.319,0,0.479,0c0.474,5.166,3.239,12.703,5.04,17.041c1.893,4.563,3.12,8.847,5.04,13.199
	c3.373,7.648,8.252,14.147,12.96,20.4c1.82,2.419,4.072,4.915,6.72,6.48c-1.099-1.701-3.219-2.814-4.56-4.32
	c-1.917-2.152-3.87-4.615-5.52-6.961c-7.334-10.424-12.404-23.197-16.801-36.479c-2.559-7.729-3.326-16.237-5.279-24.72
	c-0.32-4.239-0.641-8.48-0.961-12.721c-0.117,8.389,0.696,16.678,2.4,24c-0.08,1.601-0.16,3.201-0.24,4.801
	c-0.068,2.324-0.021,5.986,0.48,8.16c0,2.56,0,5.119,0,7.68c1.604,7.018,2.068,13.87,4.56,19.92
	c2.356,5.725,5.044,11.291,8.399,16.08c1.383,1.973,4.211,3.955,5.041,6.24c-0.16,0-0.32,0-0.48,0
	c-1.357-2.107-3.783-3.531-5.279-5.52c-5.119-6.806-9.533-13.72-13.201-22.08c-0.668-1.527-1.705-2.953-2.159-4.802
	c-0.08,0-0.16,0-0.24,0c0,0.16,0,0.32,0,0.479c1.045,1.429,1.179,3.587,1.92,5.279c0.958,2.188,2.774,4.572,3.601,6.721
	c0.479,2.721,0.959,5.439,1.439,8.16c1.291,4.5,2.764,9.472,5.04,13.199c2.333,3.824,5.576,7.724,9.36,10.082
	c1.354,0.844,3.295,0.955,4.56,1.92c-1.293,0.828-2.927,2.328-4.319,2.881c-1.697,0.672-7.582-0.174-8.881-0.48
	c-2.357-0.557-4.328-0.262-6.479-0.959c-6.513-2.113-10.796-6.012-14.4-11.042c-5.421-7.563-8.815-16.123-11.521-26.642
	c-1.245-4.842-0.5-10.137-1.68-15.358c-0.24-5.839-0.479-11.681-0.72-17.521c0-2,0-4,0-6c-0.751-3.444-0.239-8.355-0.239-12.24
	c-0.002-9.284,0.397-19.064,1.439-27.119c-0.08,0-0.16,0-0.24,0c-0.365,2.639-2.048,5.438-2.88,7.92
	c-2.242,6.689-3.837,14.07-3.84,22.561c-0.001,3.625-0.476,10.543,0.96,12.721c-0.107-3.789-1.4-9.512-0.48-13.68
	c0.24-2.479,0.48-4.961,0.721-7.44c1.281-5.317,2.01-10.824,3.84-15.601c0.16,0,0.32,0,0.48,0c0,0.641,0,1.279,0,1.92
	c-1.065,1.69,0.135,7.815-0.24,10.319c-1.172,7.831-0.099,17.798,0,25.681c0.281,22.649,2.49,42.754,11.279,56.881
	c3.549,5.703,7.963,11.447,14.4,14.16c4.527,1.908,10.197,2.434,16.561,2.4c0,0.16,0,0.318,0,0.479
	c-0.804,0.586-1.265,0.896-1.441,2.16c0.08,0,0.16,0,0.24,0c0-0.16,0-0.318,0-0.479C245.47,206.679,248.713,204.761,248.883,204.159
	z M244.324,208.239c-0.101,6.238-1.185,15.494,0.24,21.119c1.36,4.396,2.72,8.801,4.08,13.199c0.304,2.158-1.095,4.98-0.479,7.682
	c0.631,2.771,1.317,5.602,1.92,8.16c0.08,0,0.159,0,0.239,0c-0.56-2.4-1.12-4.801-1.68-7.201c-0.542-2.4,0.196-5.314,0.239-7.439
	c0.08,0,0.16,0,0.24,0c0.151,0.42,0.047,0.232,0.24,0.48c0-0.24,0-0.48,0-0.721c-1.209-1.779-1.204-4.561-1.92-6.723
	c-0.744-2.246-1.77-4.77-2.4-7.197c-1.406-5.422-0.631-15.48-0.24-21.359C244.645,208.239,244.483,208.239,244.324,208.239z"/>
<path fill="none" stroke="#000000" stroke-miterlimit="10" d="M235.936,383.919c0.159,0,0.319,0,0.479,0
	c2.491-2.246,7.85-3.4,11.041-5.041c6.967-3.58,14.016-6.721,21.6-9.84c2.656-1.092,5.891-2.5,8.88-3.119
	c2.809-0.582,9.491,5.561,12.479,4.799c2.092-0.531,3.215-3.377,4.801-4.559c0.894-0.668,1.977-1.369,2.879-1.92
	c5.244-3.207,12.309-4.549,18.722-6.48c7.762-2.338,15.81-3.598,23.279-6c2.979-0.959,8.182-1.174,10.321-2.881
	c-2.342,0.23-4.688,1.256-6.721,1.92c-4.032,1.316-8.201,1.883-12,3.121c-9.347,3.043-19.385,3.861-28.08,7.439
	c-3.131,1.289-6.308,2.885-8.88,4.801c-2.178,1.621-2.416,4.127-5.76,4.08c-4.805-7.654-15.203-4.057-22.32-0.961
	c-8.259,3.594-16.336,7.84-24.72,11.52c-2.046,0.898-4.367,2.664-6.479,3.361 M318.735,182.319
	c-0.079,0.332,0.341,0.348,0.479,0.479C319.383,182.542,318.801,182.39,318.735,182.319z M334.575,182.558
	c-0.733,0.66-1.528,0.615-1.92,1.681c-0.588,0.762-0.612,2.104-0.96,3.119c0.16,0,0.319,0,0.479,0c0-0.16,0-0.32,0-0.48
	c1.338-2.262-0.133-3.264,3.119-4.079c0-0.08,0-0.16,0-0.24C335.055,182.558,334.815,182.558,334.575,182.558z M319.455,182.798
	c-0.078,0.332,0.34,0.348,0.479,0.479C320.104,183.024,319.521,182.869,319.455,182.798z M320.176,183.278
	c-0.08,0.332,0.34,0.348,0.479,0.479C320.823,183.503,320.241,183.349,320.176,183.278z M320.896,183.757
	c-0.079,0.332,0.34,0.349,0.479,0.48C321.543,183.983,320.961,183.83,320.896,183.757z M341.295,205.118c0-0.238,0-0.48,0-0.719
	c2.317-1.535,9.26-6.535,12.959-3.361c0-0.318,0-0.639,0-0.959c-0.24-0.08-0.479-0.16-0.719-0.24c-0.773-0.531-3.055-0.219-3.84,0
	c-2.619,0.727-4.492,0.912-6.48,2.16c-0.729,0.457-1.762,1.59-2.161,1.68c-0.844-1.123-0.848-2.971-1.438-4.32
	c-0.669-1.525-2.001-2.211-2.16-4.32c0.512-0.551,0.52-1.248,0.961-1.92c1.709-2.603,5.212-5.427,9.359-5.519
	c0.424,0.401,0.922,0.365,1.439,0.721c2.9,1.988,5.994,7.962,6,12.958C351.489,203.663,347.625,205.079,341.295,205.118z
	 M318.496,188.558c-0.437,0.354-1.057,0.563-1.681,0.72c0,0.08,0,0.159,0,0.239c0.318,0,0.64,0,0.96,0
	c2.132-1.969,4.01,0.677,6,0.961c0-0.079,0-0.159,0-0.239C321.932,189.373,321.411,188.552,318.496,188.558z M379.456,189.757
	c0,0.16,0,0.32,0,0.48c0.08,0,0.16,0,0.24,0c0-0.16,0-0.32,0-0.48C379.616,189.757,379.536,189.757,379.456,189.757z
	 M263.775,189.998c0.744,0.293,0.542,0.09,0.72,0.959c-0.328,0.377-1.652,3.22-1.92,2.64c-0.609-0.41-0.956-0.895-1.199-1.679
	c0.08,0,0.159,0,0.239,0C262.027,190.886,263.065,190.708,263.775,189.998z M379.696,190.478c0,0.16,0,0.32,0,0.479
	c0.08,0,0.16,0,0.238,0c0-0.158,0-0.318,0-0.479C379.856,190.478,379.776,190.478,379.696,190.478z M261.615,193.839
	c0.563,0.17,0.536,0.246,0.96,0.48c-0.525,1.225-1.46,3.979-2.64,4.561c-1.595,1.029-4.286,1.213-6,1.92c0-0.16,0-0.32,0-0.48
	C255.893,199.659,260.518,195.528,261.615,193.839z M398.415,194.079c-0.182,0.807-0.514,2.598,0,3.359
	C398.467,196.249,398.938,194.892,398.415,194.079z M332.655,196.239c1.279,0,2.56,0,3.841,0c1.879,2.482,4.021,5.063,4.079,9.357
	c-0.079,0-0.159,0-0.239,0c0,0.08,0,0.16,0,0.24c-2.154,0.068-3.797,1.047-5.041,0.48c0.096,0.543,0.221,0.26,0,0.719
	c-0.586,0.6-3.076,2.367-3.84,2.641c-1.125-1.662-6.271-6.619-5.039-9.357C326.985,197.636,330.711,197.62,332.655,196.239z
	 M385.696,196.958c0.088,0.5,0.057,0.463,0.238,0.721c0-0.24,0-0.48,0-0.721C385.856,196.958,385.776,196.958,385.696,196.958z
	 M385.936,197.919c0.088,0.498,0.057,0.463,0.238,0.721c0-0.24,0-0.48,0-0.721C386.094,197.919,386.014,197.919,385.936,197.919z
	 M260.175,204.638c-2.276-0.068-6.649-1.02-7.439-2.641c2.607-0.488,4.332-1.75,7.2-2.4c0,0.16,0,0.32,0,0.48
	C259.158,201.243,260.042,203.374,260.175,204.638z M301.695,206.079c-1.994,0.121-3.823,0.791-5.521,1.199
	c-1.279,0.08-2.56,0.16-3.84,0.238c-3.183,0.73-6.682,0.912-10.56,0.961c0-0.238,0-0.479,0-0.721c2.051-1.334,4.042-2.846,6-4.32
	c1.269-0.953,1.544-2.678,3.601-2.879c1.805,1.313,9.463,2.895,10.08,4.561C301.648,205.401,301.64,205.522,301.695,206.079z
	 M325.695,201.278c0.438,4.074,3.26,5.922,5.04,8.641c-4.409,0.184-12.524,3.621-12.479,8.16c0.399,0.32,0.799,0.639,1.199,0.959
	c-0.342-0.756-0.486-1.381-0.48-2.639c0.669-0.51,1.015-1.438,1.682-1.922c2.156-1.564,7.339-4.137,10.56-4.318
	c0,0.24,0,0.479,0,0.719c-3.571,2.477-5.808,9.523-11.52,9.6c-0.332-0.264-0.689-0.357-1.2-0.479c-1.532-2.326-7.03-9.615-6-13.92
	c0.32-0.881,0.64-1.76,0.96-2.643C317.137,201.696,319.982,201.296,325.695,201.278z M310.096,203.437
	c0.16,0.563,0.32,1.121,0.479,1.682c0.08,0,0.16,0,0.24,0C310.68,204.433,310.491,203.853,310.096,203.437z M383.776,205.118
	c0,0.16,0,0.32,0,0.479c0.08,0,0.158,0,0.236,0c0-0.158,0-0.318,0-0.479C383.936,205.118,383.856,205.118,383.776,205.118z
	 M310.815,205.358c0,0.158,0,0.318,0,0.479c0.079,0,0.158,0,0.238,0c0-0.16,0-0.32,0-0.479
	C310.975,205.358,310.896,205.358,310.815,205.358z M384.014,205.839c0.744,1.672,1.898,3.83,3.361,4.801
	C386.727,209.571,384.922,206.554,384.014,205.839z M338.896,206.558c4.94-0.104,13.11,3.719,16.319,5.762
	c0.869,0.553,1.422,1.395,2.4,1.92c0,0.16,0,0.318,0,0.479c-6.238-0.105-7.527,3.598-12.24,4.078
	c-0.334-0.748-1.014-1.074-1.439-1.68c-1.736-2.455-3.297-4.777-5.04-7.199c-0.663-0.92-1.729-1.467-2.16-2.641
	c0.08,0,0.16,0,0.238,0c0-0.08,0-0.16,0-0.24C337.621,206.985,338.475,206.864,338.896,206.558z M423.616,206.558
	c0,0.16,0,0.32,0,0.48c0.08,0,0.16,0,0.24,0c0-0.158,0-0.318,0-0.48C423.776,206.558,423.696,206.558,423.616,206.558z
	 M245.775,206.8c0.642,1.299,1.931,2.826,3.12,3.6C248.14,209.077,247.038,207.618,245.775,206.8z M267.855,207.517
	c0.417,0.26,0.545,0.25,0.96,0C268.495,207.517,268.175,207.517,267.855,207.517z M335.295,207.759
	c0.652,0.877,0.174,1.977,0.48,3.359c0.584,2.639,0.516,5.59,1.199,8.4c0.241,0.988,0.956,3.256,0.721,3.84
	c-1.791,1.639-4.788,1.85-7.199,2.881c-0.974,0.416-1.619,1.307-2.641,1.68c0-0.641,0-1.281,0-1.92c0.399-2.4,0.8-4.801,1.198-7.201
	c1.063-3.533,2.097-7.01,4.08-9.6C333.641,208.538,334.688,208.323,335.295,207.759z M305.535,210.399
	c0.592,0.311,0.164-0.105,0.479,0.479c1.984,2.732,2.935,13.973,1.92,18.238c-0.44,1.855-0.022,4.445-1.438,5.281
	c-0.066-3.438-1.267-6.783-2.161-9.602c-0.24-1.279-0.479-2.559-0.72-3.84c-0.557-1.65-2.034-4.307-0.721-6.48
	C303.406,212.968,304.8,211.888,305.535,210.399z M302.655,210.638c0,0.16,0,0.318,0,0.48c0.08,0,0.16,0,0.239,0
	c0-0.16,0-0.318,0-0.48C302.815,210.638,302.735,210.638,302.655,210.638z M387.375,210.88c2.064,3.549,5.729,6.295,8.16,9.598
	c4.527,6.15,8.156,12.238,12.24,18.961c0.998,1.645,5.391,8.393,4.799,10.801c-1.48,6.02-5.572,10.973-8.879,15.359
	c-1.67,2.213-4.682,3.484-6.24,5.76c0.08,0,0.16,0,0.24,0c1.84-1.6,3.68-3.199,5.52-4.801c3.746-4.947,8.691-10.164,9.84-17.52
	c-1.008-1.135-1.262-2.826-1.92-4.32c-0.912-2.066-2.125-4.451-3.359-6.479c-4.143-6.805-8.834-12.992-13.441-19.201
	C392.317,216.319,390.213,212.737,387.375,210.88z M313.936,215.679c0,0.16,0,0.32,0,0.48c0.08,0,0.16,0,0.24,0
	c0-0.16,0-0.32,0-0.48C314.096,215.679,314.016,215.679,313.936,215.679z M359.055,215.679c1.023,2.154,5.271,9.146,6.959,10.32
	c-1.381-2.443-3.27-4.668-4.799-6.961C360.469,217.923,360.1,216.483,359.055,215.679z M314.176,216.399
	c0.24,2.141,1.125,4.484,1.681,6.479c0.753,2.709,0.838,5.557,1.438,8.16c0.553,2.387-0.267,6.045,0.961,7.92
	c0.141-6.193-1.131-12.512-2.641-17.52C315.094,219.71,315.178,217.644,314.176,216.399z M258.495,221.438
	c2.697,2.514,10.254,2.891,14.641,3.84c1.393,0.301,5.313,0.33,6.24-0.24C271.015,225.204,264.831,222.995,258.495,221.438z
	 M299.296,222.878c-2.453,1.824-7.486,1.896-10.801,2.641c-1.605,0.361-4.037-0.313-5.279,0.48
	c6.916,0.139,11.531-1.508,16.561-2.881c0-0.08,0-0.16,0-0.24C299.615,222.878,299.456,222.878,299.296,222.878z M366.014,226.239
	c-0.078,0.332,0.342,0.348,0.48,0.479C366.663,226.464,366.081,226.31,366.014,226.239z M366.735,227.198
	c-0.078,0.332,0.342,0.348,0.479,0.479C367.381,227.423,366.801,227.271,366.735,227.198z M265.695,229.118
	c0.417,0.258,0.545,0.25,0.96,0C266.335,229.118,266.015,229.118,265.695,229.118z M318.735,229.839
	c0.047,0.559,0.046,0.678,0.238,0.959C318.928,230.241,318.93,230.12,318.735,229.839z M274.335,230.319
	c0.68,0.453,8.004,0.889,8.641,0.479C280.095,230.636,277.214,230.478,274.335,230.319z M318.975,231.038
	c-0.002,0.654,0.011,1.104,0.24,1.439C319.217,231.825,319.207,231.376,318.975,231.038z M372.495,231.759
	c0.027,0.031,0.721,0.719,0.721,0.719C373.34,232.175,372.618,231.886,372.495,231.759z M319.215,232.718
	c-0.028,1.322,0.199,5.215,0.721,6C319.985,236.921,320.018,233.905,319.215,232.718z M342.735,232.958c0.16,0,0.318,0,0.479,0
	c0.279,2.369,1.604,4.08,2.16,6.48c-0.16,0-0.32,0-0.479,0c0-0.16,0-0.32,0-0.48C343.692,237.462,342.905,235.431,342.735,232.958z
	 M285.615,233.198c-0.079,0.332,0.341,0.348,0.479,0.479C286.263,233.423,285.681,233.271,285.615,233.198z M436.094,236.558
	c-0.238,0.318-0.479,0.641-0.719,0.961C435.727,237.755,436.178,236.679,436.094,236.558z M319.936,239.198
	c-0.016,0.697-0.012,1.313,0.24,1.68C320.19,240.181,320.188,239.567,319.936,239.198z M318.256,239.679
	c-0.039,1.529-0.436,4.725,0.239,5.76C318.534,243.909,318.93,240.714,318.256,239.679z M432.495,240.159
	c-1.689,1.693-6.666,4.85-8.879,6c0,0.08,0,0.16,0,0.24c0.16,0,0.318,0,0.479,0c2.57-2.352,6.635-3.361,8.641-6.24
	C432.655,240.159,432.575,240.159,432.495,240.159z M376.334,241.599c0.695,1.52,1.693,2.875,2.16,4.561c0.08,0,0.16,0,0.24,0
	C378.422,244.796,377.336,242.376,376.334,241.599z M320.176,243.038c0.019,0.607,0.029,0.893,0.24,1.201
	C320.397,243.63,320.387,243.347,320.176,243.038z M248.655,244.478c0.07,0.682,0.16,1.049,0.48,1.439c0-0.24,0-0.479,0-0.721
	C248.972,245.011,248.82,244.663,248.655,244.478z M378.735,246.399c0.238,0.639,0.479,1.277,0.721,1.92c0.08,0,0.16,0,0.24,0
	C379.524,247.565,379.2,246.866,378.735,246.399z M318.496,247.839c0,0.16,0,0.32,0,0.48c0.079,0,0.159,0,0.239,0
	c0-0.16,0-0.32,0-0.48C318.655,247.839,318.575,247.839,318.496,247.839z M379.696,248.558c0.959,2.641,1.92,5.279,2.879,7.92
	c0-0.238,0-0.48,0-0.721C381.125,253.784,381.366,250.298,379.696,248.558z M318.496,248.798c-0.138,5.65,0.698,10.391,1.92,14.641
	c0.692,2.412,0.676,4.434,1.439,6.721c3.063,9.166,6.895,16.496,12.96,22.559c2.629,2.631,5.131,5.459,8.64,7.201
	c-1.193-1.561-5.233-4.174-6.959-5.52c-5.398-4.203-9.678-12.117-12.48-18.961c-2.201-5.377-3.084-11.498-4.561-17.52
	C319.135,254.878,318.815,251.839,318.496,248.798z M561.135,255.999c-0.207,0.156-0.754,0.32-0.961,0.479
	c5.115-0.121,6.494,2.613,7.92,6.24c0.645,1.637,1.262,5.479,0,7.201c-1.09,2.902-5.854,3.736-8.4,5.279
	c-2.961,1.797-6.283,3.174-9.359,5.041c-1.455,0.883-3.041,2.053-4.799,2.639c-3.473,1.158-7.396,0.568-11.281,1.441
	c-2.469,0.553-5.865,0.961-7.92,0.479c-0.861-1.316-2.086-2.41-2.641-4.08c-0.668-2.016,0.617-3.605-0.479-5.279
	c-0.322,4.416,0.441,10.162,5.279,10.08c1.141-0.676,2.775-0.127,4.32-0.48c2.545-0.582,5.809-0.613,8.398-1.199
	c0.719,0,1.439,0,2.16,0c4.906-1.354,9-4.068,12.959-6.479c4.334-2.641,9.117-3.9,12.48-7.439c0.203-6.25-0.383-11.535-5.041-13.441
	C562.895,256.319,562.014,256.159,561.135,255.999z M558.254,256.478c0.246,0.191,0.066,0.086,0.48,0.238
	C558.491,256.526,558.668,256.634,558.254,256.478z M382.575,256.718c0.072,0.863,0.285,1.871,0.721,2.4c0-0.24,0-0.48,0-0.719
	C382.987,257.952,382.905,257.136,382.575,256.718z M557.295,256.718c0.244,0.193,0.064,0.086,0.479,0.24
	C557.53,256.765,557.709,256.874,557.295,256.718z M555.854,256.958c-1.004,0.645-2.227,0.369-3.6,0.721
	c-2.412,0.619-5.303,1.291-7.68,1.92c-1.607,0.426-3.188,0.01-4.563,0.721c-0.479,0.559-0.959,1.119-1.438,1.68
	c-3.525,2.65-6.613,5.795-10.08,8.4c-1.527,1.146-3.883,2.391-4.563,4.318c0.08,0,0.16,0,0.24,0c1.098-1.613,2.77-2.67,4.32-3.84
	c2.639-1.986,4.98-4.455,7.68-6.479c1.621-1.217,2.984-3.348,5.041-4.08c1.279-0.16,2.561-0.32,3.84-0.48
	c2.373-0.607,5.293-1.264,7.682-1.92c1.541-0.424,3.195-0.16,4.318-0.961C556.655,256.958,556.254,256.958,555.854,256.958z
	 M321.375,257.679c0,0.16,0,0.32,0,0.48c0.08,0,0.16,0,0.24,0c0-0.16,0-0.32,0-0.48
	C321.535,257.679,321.455,257.679,321.375,257.679z M321.615,259.118c0,0.16,0,0.32,0,0.48c0.08,0,0.16,0,0.24,0
	c0-0.16,0-0.32,0-0.48C321.775,259.118,321.695,259.118,321.615,259.118z M444.254,259.118c-1.238,0.947-4.25,1.752-5.76,2.16
	c-1.23,0.332-2.941-0.33-3.84,0.24c1.879,0.059,5.461,1.188,6.961,0.238c-1.113,0.041-1.861,0.018-2.4-0.479
	c2.139-0.209,4.096-1.123,5.76-1.92c0-0.08,0-0.16,0-0.24C444.735,259.118,444.495,259.118,444.254,259.118z M383.295,259.358
	c0.088,0.498,0.059,0.463,0.24,0.721c0-0.24,0-0.48,0-0.721C383.456,259.358,383.375,259.358,383.295,259.358z M321.855,260.319
	c0,0.158,0,0.316,0,0.479c0.079,0,0.159,0,0.239,0c0-0.16,0-0.32,0-0.479C322.016,260.319,321.936,260.319,321.855,260.319z
	 M383.536,260.319c0.047,0.559,0.045,0.678,0.24,0.959C383.729,260.72,383.729,260.601,383.536,260.319z M564.254,265.118
	c0.016-1.037-0.086-1.898-0.24-2.641c-0.385-0.135-0.576-0.191-1.199-0.238c-0.713,0.561-1.549,0.789-2.16,1.438
	c0.729,0.564,0.76,1.287,0.721,2.643c-0.16,0-0.32,0-0.479,0c-0.313,0.209-0.594,0.213-1.199,0.238c0-0.08,0-0.158,0-0.238
	c-0.08,0-0.16,0-0.24,0c0.033-0.883,0.104-2.131-0.24-2.643c-0.219,1.787,0.232,2.828,0.48,4.563
	c-2.516,1.219-10.361,6.975-11.762,9.119c0.08,0,0.158,0,0.238,0c1.918-2.473,5.334-4.182,7.92-6c1.293-0.91,2.275-2.51,4.08-2.881
	c0.369,1.209,1.164,1.615,1.92,2.398c0.563-0.047,0.68-0.045,0.961-0.24c-1.951-0.158-1.877-1.379-2.881-2.396
	c0.16-0.24,0.32-0.48,0.48-0.721c-0.16,0.08-0.32,0.158-0.48,0.238c0-0.08,0-0.158,0-0.238c-0.18-0.26-0.143-0.229-0.238-0.723
	c0.721-0.08,1.439-0.16,2.158-0.238c0,0.158,0,0.318,0,0.479c0.613,0.828,0.369,2.447,0.961,3.361
	c0.033-1.859-0.367-2.787-0.721-4.08c0.961-0.404,2.953-0.91,3.361-1.92c0.395-0.596,0.27-2.137,0.238-3.121
	c-0.82-0.439-1.926-0.508-3.359-0.48c-0.879,0.563-1.76,1.121-2.641,1.682c0,0.158,0,0.318,0,0.479c0.08,0,0.16,0,0.24,0
	c0.977-1.438,2.516-1.973,5.041-1.92c0,0.08,0,0.16,0,0.24c0.08,0,0.16,0,0.24,0C565.667,263.024,566.163,264.788,564.254,265.118z
	 M322.096,261.519c0.088,0.498,0.059,0.461,0.24,0.721c0-0.24,0-0.48,0-0.721C322.256,261.519,322.176,261.519,322.096,261.519z
	 M383.776,261.519c0.047,0.559,0.045,0.678,0.236,0.959C383.967,261.919,383.969,261.8,383.776,261.519z M322.336,262.718
	c0.088,0.498,0.058,0.463,0.239,0.721c0-0.24,0-0.48,0-0.721C322.496,262.718,322.416,262.718,322.336,262.718z M384.014,262.718
	c0.049,0.561,0.047,0.678,0.24,0.961C384.208,263.12,384.209,263.001,384.014,262.718z M561.854,266.079
	c-0.158-0.881-0.318-1.76-0.479-2.641c0.889-0.279,0.979-0.605,2.16-0.723c0,0.08,0,0.16,0,0.24c0.08,0,0.158,0,0.238,0
	c0.104,1.16,0.016,1.295-0.238,2.4C562.723,265.626,562.813,265.886,561.854,266.079z M322.575,263.679
	c0.089,0.498,0.058,0.461,0.24,0.721c0-0.24,0-0.48,0-0.721C322.735,263.679,322.655,263.679,322.575,263.679z M384.254,264.159
	c0.09,0.498,0.059,0.461,0.24,0.719c0-0.24,0-0.479,0-0.719C384.415,264.159,384.334,264.159,384.254,264.159z M322.815,264.636
	c0.208,4.057,2.22,7.445,3.119,11.041c0.08,0,0.16,0,0.24,0C325.055,271.999,323.936,268.319,322.815,264.636z M435.135,264.636
	c0.561,0.4,1.119,0.803,1.68,1.201C436.405,265.093,436.061,264.872,435.135,264.636z M437.055,265.839
	c0.854,1.045,2.811,1.566,4.08,2.16C440.372,267.048,438.354,266.179,437.055,265.839z M557.295,266.319
	c-2.719,2.705-7.473,3.961-9.6,7.199c0.078,0,0.158,0,0.236,0c2.418-3.037,7.369-4.018,9.604-7.199
	C557.456,266.319,557.375,266.319,557.295,266.319z M384.495,267.759c0,0.652,0.01,1.104,0.24,1.439
	C384.737,268.546,384.727,268.095,384.495,267.759z M326.176,275.919c0,0.16,0,0.32,0,0.48c0.08,0,0.16,0,0.24,0
	c0-0.16,0-0.32,0-0.48C326.336,275.919,326.256,275.919,326.176,275.919z M539.536,276.399c0.428,0.303,1.012,0.293,1.438,0
	C540.495,276.399,540.014,276.399,539.536,276.399z M326.416,276.636c0.079,0.32,0.159,0.643,0.239,0.963c0.08,0,0.16,0,0.239,0
	C326.754,277.06,326.715,276.962,326.416,276.636z M535.696,276.878c-1.023,0.619-3.545-0.152-4.563,0.48
	c1.975,0.053,5.207,0.363,6.48-0.48C536.975,276.878,536.334,276.878,535.696,276.878z M527.536,277.358
	c0.504,0.367,2.135,0.359,2.639,0C529.295,277.358,528.415,277.358,527.536,277.358z M525.375,277.599
	c0.42,0.281,0.779,0.271,1.199,0C526.174,277.599,525.774,277.599,525.375,277.599z M547.215,277.599
	c-3.391,3.059-11.092,2.217-16.32,3.357c-2.096,0.459-4.82-0.367-6.24,0.721c5.131,0.096,10.918-0.613,15.359-1.68
	c2.912-0.699,5.893-0.436,7.441-2.398C547.375,277.599,547.295,277.599,547.215,277.599z M327.375,278.798c0,0.16,0,0.32,0,0.48
	c0.08,0,0.16,0,0.24,0c0-0.16,0-0.32,0-0.48C327.535,278.798,327.455,278.798,327.375,278.798z M383.055,279.759
	c0,0.16,0,0.32,0,0.48c0.08,0,0.16,0,0.24,0c0-0.16,0-0.32,0-0.48C383.215,279.759,383.135,279.759,383.055,279.759z
	 M382.815,280.718c0,0.16,0,0.32,0,0.48c0.078,0,0.158,0,0.238,0c0-0.16,0-0.32,0-0.48
	C382.975,280.718,382.895,280.718,382.815,280.718z M382.575,281.438c0.09,0.498,0.059,0.463,0.24,0.721c0-0.24,0-0.48,0-0.721
	C382.735,281.438,382.655,281.438,382.575,281.438z M382.334,282.399c0,0.158,0,0.316,0,0.479c0.08,0,0.16,0,0.24,0
	c0-0.16,0-0.32,0-0.479C382.495,282.399,382.415,282.399,382.334,282.399z M382.094,283.118c0,0.16,0,0.32,0,0.48
	c0.08,0,0.16,0,0.24,0c0-0.16,0-0.32,0-0.48C382.254,283.118,382.174,283.118,382.094,283.118z M381.856,284.079
	c-0.326,1.494-1.033,2.447-1.201,4.08c0.08,0,0.16,0,0.238,0c0-0.16,0-0.32,0-0.48C381.432,287.036,382.131,284.655,381.856,284.079
	z M362.415,285.999c0.08,0.24,0.16,0.479,0.24,0.719c0.08,0,0.16,0,0.238,0C362.694,286.146,362.797,286.323,362.415,285.999z
	 M362.895,287.198c-0.078,0.332,0.34,0.348,0.48,0.479C363.543,287.423,362.961,287.271,362.895,287.198z M363.135,287.919
	c-0.08,0.332,0.342,0.348,0.48,0.48C363.784,288.144,363.202,287.991,363.135,287.919z M363.375,288.636
	c-0.08,0.336,0.34,0.352,0.48,0.48C364.024,288.864,363.442,288.71,363.375,288.636z M305.056,290.319
	c3.167,1.395,6.366,3.168,9.841,4.316c1.92,0.639,6.303,0.836,7.68,1.922c1.359,1.52,2.72,3.043,4.08,4.561c-0.641,0-1.28,0-1.92,0
	c-1.43-0.857-3.778-0.467-5.521-0.959c-3.555-1.006-7.049-2.27-10.08-3.602c-1.297-0.568-2.826-0.605-3.358-1.922
	C305.192,293.743,305.095,291.567,305.056,290.319z M337.215,292.478c0.179,0.305,2.098,2.557,2.4,2.398
	C339.615,294.878,337.565,292.692,337.215,292.478z M510.735,293.919c0.695-0.014,1.313-0.012,1.68,0.24
	c-3.184,0.338-6.324,1.951-9.119,2.879c-6.479,2.152-12.953,3.928-19.201,6c-20.717,6.875-41.662,12.703-62.158,19.441
	c-7.467,2.453-17.658,0.975-27.121,0.959c-2.096-0.002-10.215,0.168-11.279-0.48c0.16,0,0.32,0,0.479,0
	c4.566-3.998,13.635-3.506,19.684-6c8.818-3.635,18.545-6.115,27.6-9.84c4.424-1.82,9.303-3.715,13.68-5.52
	c1.246-0.516,2.359-0.436,3.6-0.959c0.811-0.348,1.885-1.414,2.641-1.684c0.811-0.285,5-0.145,6.48-0.479
	c2.799-0.16,5.6-0.32,8.398-0.48c1.902-0.422,4.252,0.014,6.48-0.479c7.738-1.721,16.744-0.652,24.479-2.4
	C500.172,294.415,508.704,295.196,510.735,293.919z M513.616,293.919c2.236,0.008,3.475,1.143,5.039,1.92c0,0.08,0,0.16,0,0.24
	c-3.416,0.346-7.025,2.09-10.08,3.119c-7.23,2.438-14.588,4.125-21.602,6.479c-10.729,3.605-21.42,5.787-32.158,9.359
	c-7.818,2.6-15.951,4.547-24,7.201c-4.518,1.488-9.58,3.291-14.16,4.559c-1.547,0.432-7.955-0.275-9.602-0.479
	c-1.26-0.154-4.729,0.438-6.721,0c-1.797-0.396-4.625,0.219-6.719-0.24c-4.072-0.895-9.787-0.479-14.4-0.479c0-0.16,0-0.32,0-0.48
	c0.08,0,0.16,0,0.24,0c2.189-2.018,6.398-1.229,10.08-1.199c8.879,0.24,17.76,0.48,26.639,0.721
	c7.869-2.146,16.055-5.123,23.76-7.682c14.354-4.762,28.842-8.754,42.961-13.439c7.521-2.494,15.088-4.328,22.32-6.961
	C507.821,295.61,511.581,295.546,513.616,293.919z M339.855,294.878c0.11,0.193,0.926,1.326,1.198,1.201
	C340.734,295.964,340.225,295.118,339.855,294.878z M307.215,309.519c-0.164-3.334-0.83-6.453-0.959-9.359
	c-0.063-1.41-0.766-3.744,0-4.32c2.074,1.863,7.748,3.459,10.799,4.32c1.511,0.424,3.437,0.145,4.562,0.959
	c2.979,2.887,5.831,6.074,10.561,7.201c0,0.16,0,0.316,0,0.479c-1.979,0.25-3.971,0.986-5.76,1.441
	c-2.121,0.537-4.477,0.289-6.48,0.719C315.297,311.956,310.834,309.976,307.215,309.519z M341.295,296.079
	c0.407,0.594,1.073,1.059,1.68,1.439C342.549,296.87,341.967,296.472,341.295,296.079z M343.215,297.519
	c-0.078,0.332,0.342,0.348,0.48,0.479C343.864,297.743,343.282,297.591,343.215,297.519z M343.936,297.999
	c0.025,0.031,0.721,0.719,0.721,0.719C344.782,298.415,344.057,298.128,343.936,297.999z M480.014,297.999
	c-0.697,0.406-2.275,0.229-3.359,0.24c-2.135,0.02-5.059,0.633-6,1.92c-0.266,0.332-0.357,0.689-0.48,1.199c0.08,0,0.16,0,0.24,0
	c0-0.08,0-0.16,0-0.24c0.418-0.525,0.291-0.861,0.961-1.199c0.756,0.496,2.895,0.271,4.08,0.24c0,0.16,0,0.32,0,0.48
	c0.424,0.527,0.615,1.313,0.719,2.156c-0.08,0-0.16,0-0.24,0c0,0.08,0,0.16,0,0.24c-1.02,0.031-2.275,0.23-2.879,0.721
	c0.4,0,0.801,0,1.199,0c1.971-1.318,5.326-0.727,7.441-2.398c0.191-0.283,0.186-0.404,0.238-0.959
	c-0.395-0.506-0.568-1.424-0.719-2.16c-0.08,0-0.16,0-0.24,0c0-0.08,0-0.16,0-0.24C480.655,297.999,480.334,297.999,480.014,297.999
	z M475.696,298.478c0.879,0,1.76,0,2.639,0c0,0.162,0,0.318,0,0.479c-2.031,0.27-3.244,0.941-6,0.961c0-0.16,0-0.318,0-0.479
	C473.399,299.347,474.975,299.026,475.696,298.478z M475.934,299.919c1.873-0.221,2.975-1.154,4.801-1.441c0,0.08,0,0.162,0,0.24
	c0.08,0,0.16,0,0.24,0c0.104,0.961,0.4,1.65,0.721,2.4c-0.16,0-0.32,0-0.48,0c-0.721,0.535-4.051,1.49-4.561,1.201
	C476.182,301.733,475.999,300.913,475.934,299.919z M344.897,298.718c-0.08,0.332,0.34,0.35,0.479,0.48
	C345.543,298.944,344.961,298.79,344.897,298.718z M346.096,299.438c0.324,0.391,0.154,0.27,0.721,0.479
	C346.592,299.7,346.395,299.599,346.096,299.438z M322.096,300.878c1.524,0.49,3.408,0.795,5.039,0.48
	c1.104,0.414,2.127,1.979,3.121,2.641c2.057,1.371,4.506,2.164,6.959,3.119c0,0.08,0,0.16,0,0.24
	c-1.232,0.229-2.67,1.369-4.318,0.961C329.996,307.601,322.616,303.61,322.096,300.878z M470.415,301.599
	c0.197,0.795,0.389,1.045,0.961,1.438C471.12,302.581,470.782,301.968,470.415,301.599z M471.616,303.038
	c0.441,0.402,0.664,0.543,1.199,0.24C472.415,303.198,472.014,303.118,471.616,303.038z M340.575,309.999
	c2.421,1.842,6.039,2.258,8.64,3.84c4.791,2.912,9.174,6.066,14.641,8.4c-1.537-1.834-4.887-2.553-6.961-3.84
	C352.155,315.454,347.03,310.962,340.575,309.999z M303.136,311.919c0.518,0.783,1.291,1.252,2.16,1.68c0-0.16,0-0.32,0-0.48
	C304.335,312.872,303.87,312.368,303.136,311.919z M257.775,313.358c0,0.16,0,0.318,0,0.479c0.08,0,0.16,0,0.239,0
	c0-0.16,0-0.318,0-0.479C257.936,313.358,257.855,313.358,257.775,313.358z M333.615,319.599c0.438,0.316,1.241,0.311,1.68,0
	C334.735,319.599,334.176,319.599,333.615,319.599z M364.815,323.679c0.301,0.391,0.504,0.48,0.961,0.721
	C365.473,324.009,365.272,323.917,364.815,323.679z M368.415,325.599c2.641,0.078,5.281,0.158,7.92,0.238c0,0.08,0,0.16,0,0.24
	c-0.08,0-0.16,0-0.24,0C374.364,327.97,369.778,326.985,368.415,325.599z M371.055,327.278c0.721,0,1.439,0,2.16,0
	c0,0.16,0,0.32,0,0.479c-0.16,0-0.32,0-0.48,0c-0.4,0.391-0.793,0.555-1.439,0.723C371.215,328.079,371.135,327.679,371.055,327.278
	z M340.096,330.399c-0.973,2.73-5.108,4.703-6.721,6.959c0.08,0,0.16,0,0.24,0c2.008-2.52,5.84-3.523,6.96-6.959
	C340.416,330.399,340.256,330.399,340.096,330.399z M300.255,333.759c0.246,0.193,0.066,0.084,0.48,0.24
	C300.49,333.806,300.669,333.913,300.255,333.759z M260.896,334.479c0.08,0.236,0.16,0.479,0.24,0.719c0.08,0,0.16,0,0.24,0
	C261.173,334.626,261.278,334.804,260.896,334.479z M350.897,334.479c0.635,0.607,1.633,0.971,2.639,1.197c0-0.08,0-0.158,0-0.238
	C352.719,335.075,351.877,334.71,350.897,334.479z M260.655,335.438c-0.939,0.605-3.08,0.092-4.08,0.721
	c1.611,0.238,3.434,0.402,4.32-0.721C260.815,335.438,260.735,335.438,260.655,335.438z M353.295,336.159
	c-0.225,0.219-0.42,0.318-0.721,0.479c0,0.08,0,0.16,0,0.24c0.242,0,0.479,0,0.721,0c0.271-0.371,0.26-0.203,0.48-0.719
	C353.616,336.159,353.456,336.159,353.295,336.159z M274.095,337.118c0.4,0,0.801,0,1.201,0c0,0.16,0,0.32,0,0.48
	c-0.16,0-0.32,0-0.48,0c-1.702,1.588-3.446,2.324-4.561,4.561c-0.16,0-0.319,0-0.479,0c-0.831-1.311-2.339-2.338-2.88-3.84
	C269.296,337.919,271.695,337.519,274.095,337.118z M332.896,337.358c-1.799,1.367-5.268,1.791-7.682,2.398
	c-1.129,0.285-2.517-0.066-3.358,0.48c3.454,0.109,9.897-1.111,11.278-2.881C333.055,337.358,332.975,337.358,332.896,337.358z
	 M351.135,337.599c-2.295,1.385-9.637,0.328-11.76,1.68c3.133,0.074,11.823-0.553,13.442-1.68
	C352.256,337.599,351.696,337.599,351.135,337.599z M258.735,338.319c0.413,0.211,0.307,0.213,0.721,0
	C259.216,338.319,258.976,338.319,258.735,338.319z M330.256,339.038c0,0.16,0,0.32,0,0.48c2.027,0.088,7.334,0.752,8.879-0.24
	C335.807,339.302,333.301,339.401,330.256,339.038z M284.415,340.239c0.193,0.244,0.086,0.063,0.24,0.479
	c-2.087,0.689-6.031,4.514-6.96,6.48c-0.729-0.23-2.015-0.322-2.399-0.959c1.404-0.9,2.338-2.564,3.84-3.361
	C280.985,341.896,283.001,341.608,284.415,340.239z M363.135,345.038c-0.379,0.293-1.066,0.42-1.439,0.721c0.24,0,0.479,0,0.719,0
	c0.379-0.293,1.066-0.42,1.441-0.721C363.616,345.038,363.375,345.038,363.135,345.038z M360.735,345.759
	c0.414,0.211,0.307,0.213,0.721,0C361.215,345.759,360.975,345.759,360.735,345.759z M360.014,345.999
	c0.246,0.193,0.066,0.084,0.48,0.24C360.25,346.046,360.428,346.153,360.014,345.999z M359.055,346.239
	c-1.064,0.779-3.043,0.625-4.08,1.438c0.24,0,0.48,0,0.721,0c1.359-0.398,2.719-0.801,4.08-1.197c0-0.08,0-0.16,0-0.24
	C359.536,346.239,359.295,346.239,359.055,346.239z M274.335,347.198c1.041,0.08,2.08,0.16,3.121,0.24c0,0.08,0,0.158,0,0.238
	c-1.973,2.123-2.779,6.684-5.521,7.92c-1.242-0.939-3.313-1.311-4.8-1.92c0-0.08,0-0.158,0-0.238
	C268.999,352.53,273.235,348.839,274.335,347.198z M354.014,347.679c0.246,0.193,0.066,0.086,0.48,0.24
	C354.25,347.726,354.428,347.833,354.014,347.679z M261.376,353.438c-0.48,0.561-0.961,1.121-1.44,1.68
	c0.579,0.242,1.556-1.229,1.68-1.68C261.535,353.438,261.456,353.438,261.376,353.438z M280.335,354.399
	c0.592,0.311,0.164-0.105,0.48,0.479c-0.831,0.932-0.998,2.775-2.16,3.361c0-0.08,0-0.16,0-0.24c-0.592-0.311-0.163,0.104-0.48-0.48
	C279.035,356.868,279.981,355.517,280.335,354.399z M280.095,357.038c0.627,0.402,0.795,0.521,0.961,1.441
	c-0.364,0.129-0.406,0.162-0.961,0.236c-0.271-0.369-0.26-0.199-0.479-0.719C279.919,357.673,279.943,357.575,280.095,357.038z
	 M283.456,360.399c0.559,0.16,1.119,0.316,1.68,0.479c0,0.08,0,0.16,0,0.24c-0.641,0-1.28,0-1.92,0
	C283.296,360.878,283.376,360.636,283.456,360.399z M280.095,361.358c0.779,0.199,0.367-0.117,0.721,0.479c-0.16,0-0.32,0-0.48,0
	c-0.809,0.824-2.646,0.775-2.879,0C278.038,361.747,279.626,361.673,280.095,361.358z M271.936,361.599
	c0.245,0.191,0.065,0.086,0.479,0.238C272.171,361.646,272.349,361.753,271.936,361.599z M288.976,364.239
	c0.025,0.031,0.72,0.719,0.72,0.719C289.821,364.655,289.097,364.368,288.976,364.239z M290.415,364.718
	c0.025,0.033,0.721,0.721,0.721,0.721C291.261,365.136,290.538,364.849,290.415,364.718z M265.695,364.958
	c0.245,0.193,0.065,0.086,0.479,0.24C265.931,365.005,266.109,365.114,265.695,364.958z M264.976,365.198
	c0.244,0.193,0.064,0.086,0.48,0.24C265.21,365.245,265.39,365.354,264.976,365.198z M264.255,365.438
	c-0.244,0.191-0.065,0.086-0.479,0.238c0,0.08,0,0.16,0,0.24c0.16,0,0.319,0,0.479,0c0.246-0.191,0.066-0.086,0.48-0.24
	c0-0.078,0-0.158,0-0.238C264.575,365.438,264.415,365.438,264.255,365.438z M279.615,365.679c3.313-0.063,7.345,1.639,8.16,4.08
	c-0.08,0-0.16,0-0.24,0C285.501,367.929,281.31,367.817,279.615,365.679z M263.056,365.919c-0.245,0.193-0.065,0.084-0.48,0.24
	c0,0.08,0,0.16,0,0.24c0.16,0,0.32,0,0.48,0c0.244-0.193,0.066-0.086,0.479-0.24c0-0.08,0-0.16,0-0.24
	C263.376,365.919,263.216,365.919,263.056,365.919z M261.855,366.399c-0.703,0.617-6.884,3.311-7.92,3.6c0,0.08,0,0.16,0,0.24
	c0.159,0,0.319,0,0.479,0c1.342-1.225,5.963-3.08,7.92-3.604c0-0.076,0-0.156,0-0.236
	C262.175,366.399,262.015,366.399,261.855,366.399z M251.775,370.958c-0.245,0.193-0.065,0.086-0.479,0.24c0,0.08,0,0.16,0,0.24
	c0.16,0,0.319,0,0.479,0c0.245-0.193,0.065-0.084,0.479-0.24c0-0.08,0-0.16,0-0.24C252.095,370.958,251.936,370.958,251.775,370.958
	z M235.456,378.636c-1.32,1.156-8.615,4.262-10.561,4.803c0,0.08,0,0.16,0,0.238c0.16,0,0.32,0,0.48,0
	c1.35-1.184,8.547-4.258,10.56-4.801c0-0.08,0-0.16,0-0.24C235.775,378.636,235.615,378.636,235.456,378.636z"/>
</svg>
